<svg xmlns="http://www.w3.org/2000/svg" id="canvas" viewBox="188.833 265.811 1050.849 209.607"><path d="M 243.57,308.27 C 243.29 308.87, 243.71 309.25, 243.71 310.55 C 243.71 311.85, 243.74 312.33, 243.56 314.78 C 243.38 317.23, 243.48 318.76, 242.82 322.78 C 242.16 326.80, 241.64 329.34, 240.26 334.88 C 238.88 340.42, 237.82 343.72, 235.93 350.50 C 234.04 357.27, 233.00 361.14, 230.81 368.77 C 228.61 376.39, 227.32 380.70, 224.97 388.63 C 222.62 396.56, 221.57 400.75, 219.04 408.42 C 216.51 416.10, 215.01 419.86, 212.32 427.01 C 209.64 434.16, 208.34 437.97, 205.60 444.16 C 202.86 450.35, 201.13 453.30, 198.64 457.97 C 196.15 462.64, 194.44 464.65, 193.15 467.53 C 191.87 470.41, 191.72 472.26, 192.23 472.37 C 192.73 472.47, 193.82 471.70, 195.67 468.06 C 197.51 464.42, 198.68 460.93, 201.45 454.17 C 204.22 447.41, 205.90 442.78, 209.54 434.26 C 213.17 425.74, 215.57 420.73, 219.62 411.58 C 223.66 402.43, 225.62 397.50, 229.76 388.51 C 233.89 379.51, 235.79 375.20, 240.28 366.60 C 244.77 358.00, 247.31 353.74, 252.19 345.51 C 257.06 337.28, 259.56 333.04, 264.66 325.45 C 269.76 317.87, 272.53 314.09, 277.67 307.58 C 282.82 301.07, 285.79 297.85, 290.37 292.90 C 294.95 287.95, 297.31 285.53, 300.59 282.84 C 303.87 280.14, 305.12 279.64, 306.77 279.43 C 308.42 279.22, 308.44 279.58, 308.85 281.80 C 309.25 284.02, 309.18 285.84, 308.78 290.54 C 308.38 295.25, 307.85 298.90, 306.84 305.34 C 305.83 311.78, 305.28 315.45, 303.75 322.74 C 302.22 330.03, 301.23 334.40, 299.21 341.79 C 297.20 349.19, 295.73 353.41, 293.67 359.72 C 291.61 366.03, 290.66 368.78, 288.91 373.33 C 287.15 377.88, 285.72 379.82, 284.88 382.48 C 284.05 385.14, 284.20 385.89, 284.73 386.62 C 285.26 387.35, 286.16 387.56, 287.54 386.15 C 288.93 384.74, 289.61 383.25, 291.66 379.57 C 293.70 375.90, 294.79 373.11, 297.77 367.76 C 300.74 362.41, 302.60 359.10, 306.53 352.83 C 310.47 346.57, 312.96 342.90, 317.44 336.44 C 321.93 329.98, 324.38 326.52, 328.95 320.53 C 333.52 314.54, 336.05 311.66, 340.28 306.49 C 344.52 301.32, 346.43 299.14, 350.12 294.70 C 353.82 290.25, 355.49 287.83, 358.75 284.25 C 362.01 280.68, 363.58 279.09, 366.43 276.83 C 369.29 274.57, 370.70 273.86, 373.02 272.95 C 375.34 272.03, 376.33 271.88, 378.04 272.26 C 379.74 272.63, 380.39 272.99, 381.56 274.83 C 382.73 276.67, 383.67 277.68, 383.88 281.45 C 384.10 285.21, 383.93 287.83, 382.64 293.63 C 381.35 299.44, 380.02 303.27, 377.41 310.47 C 374.81 317.67, 373.16 321.77, 369.60 329.64 C 366.05 337.50, 363.55 341.93, 359.64 349.80 C 355.74 357.67, 353.48 361.69, 350.06 368.98 C 346.65 376.27, 344.98 380.12, 342.55 386.24 C 340.13 392.37, 338.89 395.24, 337.95 399.61 C 337.01 403.99, 336.88 406.01, 337.84 408.11 C 338.80 410.20, 340.40 410.62, 342.75 410.08 C 345.09 409.54, 346.55 408.15, 349.57 405.41 C 352.58 402.67, 354.33 400.48, 357.80 396.39 C 361.28 392.29, 363.24 389.50, 366.95 384.93 C 370.65 380.37, 372.75 377.75, 376.33 373.56 C 379.91 369.38, 382.33 366.93, 384.85 364.01 C 387.38 361.10, 388.30 359.69, 388.95 358.99 C 389.60 358.30, 388.82 358.62, 388.11 360.52 C 387.39 362.41, 386.67 364.57, 385.38 368.48 C 384.09 372.39, 383.18 375.28, 381.64 380.08 C 380.10 384.87, 378.96 388.09, 377.68 392.45 C 376.41 396.81, 375.57 398.67, 375.28 401.88 C 374.99 405.10, 375.27 406.59, 376.23 408.51 C 377.18 410.44, 377.99 411.21, 380.05 411.52 C 382.10 411.82, 383.74 411.76, 386.50 410.03 C 389.25 408.30, 390.59 406.29, 393.82 402.86 C 397.05 399.43, 398.62 397.29, 402.65 392.87 C 406.69 388.46, 409.39 385.60, 413.98 380.79 C 418.57 375.98, 421.10 373.16, 425.60 368.85 C 430.10 364.53, 432.47 362.26, 436.49 359.20 C 440.50 356.13, 442.79 354.91, 445.69 353.53 C 448.58 352.15, 449.23 352.08, 450.96 352.29 C 452.69 352.50, 453.07 353.17, 454.33 354.58 C 455.60 356.00, 456.32 357.18, 457.28 359.36 C 458.24 361.54, 458.61 362.66, 459.13 365.49 C 459.65 368.31, 459.92 369.91, 459.89 373.49 C 459.85 377.07, 460.02 379.44, 458.95 383.39 C 457.88 387.34, 456.70 389.56, 454.54 393.22 C 452.38 396.89, 450.82 398.62, 448.16 401.70 C 445.50 404.78, 443.77 406.40, 441.24 408.63 C 438.70 410.86, 437.52 411.44, 435.49 412.86 C 433.45 414.28, 432.62 414.99, 431.07 415.75 C 429.52 416.52, 428.66 416.45, 427.72 416.69 C 426.77 416.93, 426.40 416.93, 426.34 416.96 C 426.28 416.99, 426.38 417.37, 427.41 416.85 C 428.45 416.33, 429.33 415.73, 431.52 414.36 C 433.71 412.99, 434.99 411.74, 438.37 410.01 C 441.75 408.28, 444.13 407.42, 448.43 405.70 C 452.73 403.98, 455.22 402.97, 459.87 401.43 C 464.51 399.88, 467.07 399.44, 471.65 397.98 C 476.23 396.51, 478.58 395.53, 482.78 394.11 C 486.98 392.68, 488.91 392.19, 492.65 390.88 C 496.38 389.56, 498.19 389.03, 501.47 387.53 C 504.75 386.03, 506.31 385.23, 509.06 383.38 C 511.81 381.52, 513.36 380.50, 515.23 378.27 C 517.10 376.04, 517.93 374.73, 518.40 372.22 C 518.87 369.71, 518.69 367.97, 517.58 365.71 C 516.46 363.44, 515.28 362.19, 512.82 360.89 C 510.35 359.60, 508.57 359.21, 505.25 359.24 C 501.92 359.28, 499.81 359.83, 496.20 361.07 C 492.58 362.31, 490.37 363.20, 487.17 365.45 C 483.97 367.69, 482.54 369.17, 480.18 372.30 C 477.81 375.43, 476.72 377.74, 475.36 381.08 C 474.00 384.42, 473.47 386.22, 473.37 389.01 C 473.27 391.79, 473.79 392.91, 474.85 395.00 C 475.92 397.09, 476.47 398.41, 478.68 399.46 C 480.90 400.52, 482.76 400.97, 485.91 400.28 C 489.07 399.59, 490.72 398.15, 494.47 396.03 C 498.22 393.90, 500.71 392.50, 504.67 389.65 C 508.62 386.79, 510.97 384.87, 514.23 381.73 C 517.48 378.59, 519.26 376.60, 520.92 373.93 C 522.58 371.27, 522.85 369.65, 522.52 368.41 C 522.20 367.17, 521.03 366.89, 519.29 367.72 C 517.55 368.55, 515.49 369.80, 513.83 372.55 C 512.17 375.30, 510.96 378.18, 510.99 381.49 C 511.02 384.79, 511.67 387.02, 513.98 389.08 C 516.29 391.14, 518.13 391.63, 522.53 391.78 C 526.92 391.93, 529.93 391.57, 535.96 389.84 C 541.98 388.12, 545.51 386.69, 552.64 383.16 C 559.78 379.64, 563.79 377.34, 571.64 372.21 C 579.49 367.08, 583.90 363.73, 591.88 357.50 C 599.86 351.28, 603.79 347.83, 611.54 341.09 C 619.29 334.36, 623.72 330.52, 630.63 323.84 C 637.55 317.16, 641.11 313.37, 646.13 307.69 C 651.15 302.02, 654.17 298.82, 655.73 295.46 C 657.29 292.09, 656.67 290.37, 653.95 290.85 C 651.23 291.34, 648.37 293.10, 642.15 297.87 C 635.94 302.64, 630.94 306.79, 622.86 314.71 C 614.78 322.63, 609.56 328.07, 601.76 337.50 C 593.95 346.92, 590.09 352.55, 583.84 361.82 C 577.59 371.10, 574.95 375.69, 570.52 383.87 C 566.09 392.05, 564.17 396.10, 561.68 402.71 C 559.20 409.33, 557.95 412.53, 558.11 416.94 C 558.28 421.35, 559.25 423.40, 562.52 424.77 C 565.79 426.14, 568.41 425.82, 574.46 423.79 C 580.51 421.76, 584.68 419.29, 592.77 414.62 C 600.85 409.95, 605.73 406.55, 614.87 400.44 C 624.01 394.32, 630.09 389.98, 638.48 384.04 C 646.87 378.10, 650.92 374.94, 656.81 370.74 C 662.70 366.54, 665.84 364.82, 667.91 363.05 C 669.97 361.29, 669.50 360.61, 667.12 361.92 C 664.74 363.24, 661.91 365.43, 656.02 369.63 C 650.13 373.83, 646.07 376.99, 637.68 382.91 C 629.29 388.84, 623.23 393.20, 614.08 399.26 C 604.94 405.32, 600.00 408.66, 591.95 413.20 C 583.91 417.74, 579.58 420.03, 573.84 421.96 C 568.11 423.88, 566.04 423.86, 563.28 422.84 C 560.53 421.83, 560.07 420.81, 560.05 416.89 C 560.02 412.98, 560.83 409.74, 563.15 403.25 C 565.47 396.77, 567.31 392.63, 571.64 384.47 C 575.97 376.32, 578.59 371.71, 584.80 362.47 C 591.01 353.23, 594.88 347.62, 602.70 338.28 C 610.52 328.94, 615.80 323.59, 623.90 315.78 C 632.01 307.98, 637.10 303.91, 643.21 299.26 C 649.32 294.61, 652.28 293.49, 654.44 292.54 C 656.61 291.59, 655.96 291.70, 654.05 294.51 C 652.14 297.32, 649.75 300.92, 644.87 306.59 C 640.00 312.26, 636.52 316.16, 629.69 322.86 C 622.85 329.57, 618.42 333.41, 610.70 340.12 C 602.97 346.84, 599.03 350.28, 591.06 356.45 C 583.09 362.62, 578.67 365.94, 570.83 370.96 C 562.99 375.97, 558.95 378.20, 551.86 381.54 C 544.77 384.87, 541.20 386.15, 535.36 387.62 C 529.51 389.09, 526.47 389.08, 522.65 388.90 C 518.82 388.72, 517.57 388.10, 516.23 386.70 C 514.90 385.30, 515.49 384.22, 515.98 381.90 C 516.48 379.58, 517.65 377.53, 518.70 375.09 C 519.75 372.64, 520.71 371.06, 521.22 369.67 C 521.73 368.28, 521.91 367.73, 521.24 368.14 C 520.56 368.55, 519.70 369.47, 517.84 371.74 C 515.99 374.00, 514.97 376.39, 511.97 379.46 C 508.97 382.53, 506.67 384.39, 502.84 387.08 C 499.00 389.78, 496.37 391.10, 492.79 392.92 C 489.21 394.75, 487.49 395.52, 484.93 396.21 C 482.38 396.91, 481.44 396.90, 480.01 396.39 C 478.57 395.88, 478.34 395.08, 477.78 393.65 C 477.21 392.22, 476.96 391.49, 477.18 389.25 C 477.39 387.01, 477.69 385.45, 478.85 382.47 C 480.01 379.50, 480.90 377.20, 482.96 374.37 C 485.03 371.55, 486.28 370.28, 489.17 368.37 C 492.05 366.45, 494.16 365.74, 497.39 364.78 C 500.62 363.82, 502.57 363.60, 505.30 363.56 C 508.04 363.51, 509.25 363.79, 511.06 364.55 C 512.86 365.32, 513.58 366.00, 514.34 367.38 C 515.11 368.76, 515.31 369.81, 514.88 371.46 C 514.46 373.12, 513.79 373.88, 512.20 375.65 C 510.61 377.42, 509.35 378.54, 506.92 380.32 C 504.49 382.11, 503.11 383.03, 500.05 384.59 C 497.00 386.14, 495.26 386.71, 491.63 388.09 C 487.99 389.47, 486.04 390.03, 481.88 391.50 C 477.72 392.96, 475.41 393.97, 470.84 395.43 C 466.26 396.89, 463.72 397.33, 459.02 398.80 C 454.32 400.26, 451.80 401.25, 447.35 402.77 C 442.89 404.29, 440.49 404.94, 436.75 406.38 C 433.01 407.83, 431.04 408.34, 428.65 409.99 C 426.25 411.63, 425.54 413.03, 424.78 414.61 C 424.03 416.19, 424.28 416.83, 424.87 417.89 C 425.46 418.95, 426.19 419.67, 427.73 419.91 C 429.26 420.14, 430.55 419.86, 432.53 419.07 C 434.52 418.27, 435.46 417.51, 437.66 415.93 C 439.87 414.35, 440.98 413.60, 443.55 411.16 C 446.13 408.71, 447.81 406.99, 450.53 403.71 C 453.25 400.43, 454.85 398.66, 457.16 394.77 C 459.46 390.88, 460.80 388.50, 462.06 384.27 C 463.32 380.04, 463.21 377.51, 463.45 373.62 C 463.69 369.73, 463.68 368.07, 463.24 364.84 C 462.80 361.60, 462.57 360.01, 461.25 357.45 C 459.93 354.89, 458.64 353.62, 456.64 352.05 C 454.63 350.49, 453.67 349.86, 451.23 349.63 C 448.80 349.41, 447.69 349.39, 444.45 350.93 C 441.20 352.47, 439.09 354.06, 435.02 357.33 C 430.96 360.61, 428.64 362.92, 424.11 367.31 C 419.59 371.70, 417.07 374.51, 412.42 379.28 C 407.76 384.05, 405.01 386.90, 400.84 391.17 C 396.68 395.43, 394.90 397.51, 391.58 400.62 C 388.26 403.72, 386.52 405.00, 384.24 406.67 C 381.95 408.34, 381.26 408.78, 380.14 408.97 C 379.02 409.15, 378.91 408.94, 378.63 407.61 C 378.36 406.27, 378.35 405.15, 378.77 402.29 C 379.18 399.43, 379.48 397.56, 380.70 393.32 C 381.91 389.09, 383.23 385.89, 384.85 381.14 C 386.47 376.38, 387.59 373.59, 388.80 369.55 C 390.00 365.51, 390.93 363.31, 390.85 360.92 C 390.77 358.54, 390.04 357.40, 388.40 357.61 C 386.76 357.82, 385.45 359.12, 382.65 361.98 C 379.85 364.85, 377.92 367.66, 374.39 371.93 C 370.87 376.21, 368.78 378.85, 365.02 383.35 C 361.27 387.86, 359.16 390.54, 355.61 394.46 C 352.05 398.38, 350.02 400.30, 347.27 402.96 C 344.52 405.61, 343.38 406.85, 341.88 407.74 C 340.37 408.64, 340.09 408.95, 339.76 407.42 C 339.43 405.90, 339.34 404.22, 340.24 400.11 C 341.14 396.01, 342.01 392.99, 344.26 386.90 C 346.51 380.80, 348.15 376.93, 351.50 369.65 C 354.85 362.37, 357.10 358.35, 361.01 350.48 C 364.93 342.61, 367.44 338.18, 371.08 330.31 C 374.71 322.44, 376.41 318.36, 379.19 311.13 C 381.97 303.91, 383.40 300.16, 384.96 294.20 C 386.52 288.24, 387.07 285.58, 386.98 281.33 C 386.88 277.07, 386.12 275.32, 384.47 272.90 C 382.83 270.48, 381.30 269.85, 378.76 269.22 C 376.22 268.58, 374.61 268.65, 371.77 269.73 C 368.94 270.82, 367.55 272.05, 364.60 274.64 C 361.64 277.23, 360.20 278.95, 357.00 282.71 C 353.79 286.47, 352.20 288.91, 348.58 293.44 C 344.96 297.97, 343.10 300.15, 338.90 305.36 C 334.70 310.58, 332.17 313.48, 327.59 319.50 C 323.01 325.51, 320.55 328.98, 316.01 335.43 C 311.46 341.88, 308.95 345.55, 304.86 351.76 C 300.77 357.96, 298.80 361.23, 295.55 366.45 C 292.29 371.67, 290.67 374.21, 288.59 377.84 C 286.51 381.48, 285.79 382.87, 285.15 384.62 C 284.52 386.38, 284.89 386.83, 285.42 386.62 C 285.95 386.41, 286.66 386.09, 287.80 383.59 C 288.93 381.09, 289.55 378.77, 291.09 374.11 C 292.63 369.45, 293.52 366.67, 295.50 360.30 C 297.47 353.93, 298.93 349.70, 300.95 342.27 C 302.98 334.83, 303.99 330.45, 305.63 323.15 C 307.26 315.84, 307.94 312.20, 309.14 305.73 C 310.34 299.26, 311.14 295.74, 311.62 290.80 C 312.09 285.86, 312.49 283.73, 311.50 281.05 C 310.51 278.36, 309.13 277.38, 306.66 277.38 C 304.20 277.39, 302.68 278.22, 299.16 281.09 C 295.64 283.95, 293.59 286.60, 289.06 291.71 C 284.53 296.83, 281.61 300.07, 276.50 306.66 C 271.40 313.26, 268.62 317.06, 263.53 324.70 C 258.45 332.34, 255.95 336.59, 251.08 344.85 C 246.20 353.12, 243.66 357.40, 239.16 366.02 C 234.66 374.64, 232.75 378.97, 228.59 387.97 C 224.43 396.97, 222.46 401.89, 218.35 411.01 C 214.23 420.14, 211.77 425.13, 208.00 433.59 C 204.22 442.05, 202.42 446.65, 199.46 453.32 C 196.51 460.00, 194.70 463.16, 193.22 466.97 C 191.74 470.77, 191.60 471.98, 192.08 472.35 C 192.56 472.73, 193.91 471.53, 195.62 468.86 C 197.33 466.18, 198.30 463.77, 200.62 458.98 C 202.95 454.18, 204.61 451.16, 207.26 444.88 C 209.90 438.60, 211.19 434.77, 213.84 427.58 C 216.50 420.38, 217.99 416.61, 220.53 408.91 C 223.06 401.22, 224.12 397.02, 226.51 389.09 C 228.89 381.16, 230.20 376.86, 232.47 369.25 C 234.74 361.65, 235.82 357.80, 237.87 351.06 C 239.92 344.32, 241.04 341.06, 242.71 335.56 C 244.38 330.05, 245.12 327.61, 246.23 323.52 C 247.34 319.43, 248.06 317.85, 248.24 315.10 C 248.42 312.36, 247.76 311.30, 247.14 309.79 C 246.51 308.27, 245.81 307.84, 245.10 307.53 C 244.39 307.23, 243.85 307.66, 243.57 308.27" style="stroke: black; fill: black;"/><path d="M 795.14,319.44 C 794.03 320.31, 793.19 321.82, 791.10 324.75 C 789.01 327.68, 787.75 329.92, 784.70 334.10 C 781.66 338.27, 779.76 341.04, 775.87 345.63 C 771.98 350.21, 769.67 352.55, 765.25 357.01 C 760.82 361.47, 758.26 363.90, 753.74 367.92 C 749.23 371.95, 746.65 374.04, 742.68 377.15 C 738.72 380.27, 736.62 381.68, 733.92 383.49 C 731.21 385.30, 730.01 385.44, 729.15 386.21 C 728.29 386.97, 728.38 387.42, 729.61 387.32 C 730.84 387.22, 732.37 387.38, 735.29 385.73 C 738.21 384.08, 740.24 382.32, 744.22 379.08 C 748.20 375.84, 750.68 373.64, 755.19 369.53 C 759.70 365.42, 762.26 362.99, 766.76 358.53 C 771.26 354.07, 773.65 351.75, 777.68 347.20 C 781.72 342.65, 783.74 339.92, 786.94 335.78 C 790.15 331.64, 791.76 329.58, 793.70 326.49 C 795.65 323.41, 796.38 321.78, 796.67 320.37 C 796.95 318.96, 796.25 318.56, 795.14 319.44" style="stroke: black; fill: black;"/><path d="M 729.25,341.63 C 729.82 342.37, 730.48 342.74, 732.51 343.73 C 734.54 344.72, 736.20 345.09, 739.41 346.58 C 742.62 348.07, 744.70 349.17, 748.56 351.17 C 752.43 353.18, 754.73 354.31, 758.74 356.58 C 762.76 358.86, 764.86 360.09, 768.64 362.56 C 772.42 365.03, 774.43 366.53, 777.64 368.93 C 780.85 371.33, 782.00 372.34, 784.68 374.56 C 787.35 376.77, 788.82 378.00, 791.03 380.02 C 793.24 382.04, 794.22 383.09, 795.72 384.68 C 797.23 386.26, 797.86 386.84, 798.57 387.94 C 799.28 389.05, 798.87 389.76, 799.26 390.21 C 799.65 390.66, 800.14 390.86, 800.52 390.20 C 800.91 389.55, 801.55 388.56, 801.20 386.93 C 800.85 385.30, 800.30 384.02, 798.77 382.06 C 797.24 380.10, 795.96 379.15, 793.55 377.14 C 791.13 375.12, 789.53 374.11, 786.70 371.98 C 783.87 369.86, 782.70 368.89, 779.40 366.52 C 776.10 364.16, 774.05 362.65, 770.21 360.15 C 766.38 357.66, 764.23 356.43, 760.23 354.03 C 756.23 351.64, 754.03 350.41, 750.22 348.17 C 746.41 345.94, 744.48 344.48, 741.20 342.85 C 737.93 341.22, 736.14 340.57, 733.84 340.01 C 731.54 339.45, 730.62 339.71, 729.70 340.04 C 728.78 340.36, 728.69 340.89, 729.25 341.63" style="stroke: black; fill: black;"/><path d="M 931.30,276.71 C 930.88 276.90, 930.92 276.44, 930.28 277.63 C 929.64 278.83, 928.81 279.61, 928.08 282.67 C 927.34 285.73, 927.77 287.85, 926.61 292.91 C 925.45 297.98, 924.39 301.30, 922.28 307.99 C 920.17 314.68, 918.89 318.67, 916.06 326.36 C 913.22 334.06, 911.59 338.57, 908.11 346.45 C 904.63 354.33, 902.33 358.40, 898.67 365.77 C 895.01 373.14, 893.08 376.94, 889.82 383.31 C 886.55 389.68, 884.96 392.74, 882.34 397.63 C 879.72 402.53, 878.18 404.80, 876.70 407.78 C 875.23 410.76, 875.12 411.90, 874.98 412.52 C 874.83 413.14, 875.38 412.76, 875.96 410.87 C 876.55 408.97, 876.52 407.16, 877.91 403.05 C 879.30 398.94, 880.41 396.15, 882.91 390.32 C 885.42 384.49, 886.93 380.78, 890.43 373.91 C 893.92 367.04, 895.98 363.12, 900.38 355.97 C 904.78 348.81, 907.60 345.04, 912.43 338.14 C 917.26 331.24, 919.97 327.83, 924.52 321.48 C 929.08 315.13, 931.43 311.79, 935.22 306.39 C 939.00 300.99, 940.62 298.37, 943.45 294.49 C 946.28 290.61, 947.79 289.13, 949.37 286.97 C 950.94 284.81, 951.29 283.74, 951.31 283.69 C 951.34 283.63, 950.33 284.28, 949.48 286.68 C 948.62 289.08, 948.04 291.28, 947.03 295.68 C 946.02 300.09, 945.46 302.81, 944.43 308.69 C 943.40 314.58, 942.88 318.11, 941.88 325.10 C 940.89 332.10, 940.23 336.26, 939.45 343.67 C 938.66 351.08, 938.19 354.95, 937.94 362.17 C 937.69 369.40, 937.58 373.47, 938.20 379.79 C 938.82 386.12, 939.32 389.11, 941.05 393.79 C 942.77 398.46, 943.99 400.51, 946.80 403.15 C 949.61 405.80, 951.45 406.64, 955.09 407.00 C 958.73 407.36, 960.71 406.78, 965.01 404.95 C 969.30 403.11, 971.78 401.67, 976.56 397.81 C 981.34 393.96, 983.87 391.20, 988.89 385.68 C 993.92 380.16, 996.71 376.64, 1001.67 370.23 C 1006.62 363.82, 1009.37 360.29, 1013.66 353.63 C 1017.95 346.97, 1020.12 343.25, 1023.12 336.93 C 1026.11 330.62, 1027.12 327.52, 1028.64 322.06 C 1030.16 316.60, 1030.64 314.21, 1030.70 309.64 C 1030.76 305.07, 1030.08 302.73, 1028.94 299.22 C 1027.80 295.72, 1026.59 294.31, 1025.00 292.11 C 1023.41 289.91, 1022.37 289.23, 1020.97 288.22 C 1019.57 287.21, 1018.75 287.27, 1017.99 287.06 C 1017.23 286.85, 1017.40 287.07, 1017.16 287.16 C 1016.92 287.24, 1016.85 287.20, 1016.78 287.49 C 1016.72 287.77, 1016.44 287.95, 1016.83 288.60 C 1017.22 289.25, 1017.70 289.61, 1018.74 290.75 C 1019.78 291.89, 1020.57 292.42, 1022.04 294.32 C 1023.51 296.23, 1024.84 297.19, 1026.09 300.26 C 1027.35 303.33, 1028.20 305.40, 1028.32 309.66 C 1028.45 313.91, 1028.08 316.24, 1026.72 321.54 C 1025.36 326.85, 1024.41 329.95, 1021.52 336.18 C 1018.62 342.42, 1016.50 346.13, 1012.26 352.72 C 1008.01 359.32, 1005.26 362.84, 1000.31 369.17 C 995.35 375.50, 992.51 379.00, 987.48 384.37 C 982.45 389.74, 979.85 392.41, 975.16 396.03 C 970.46 399.66, 967.95 400.88, 963.98 402.51 C 960.02 404.15, 958.42 404.48, 955.34 404.23 C 952.26 403.98, 951.01 403.51, 948.57 401.26 C 946.13 399.01, 944.83 397.32, 943.15 392.99 C 941.46 388.66, 940.82 385.74, 940.14 379.59 C 939.46 373.44, 939.53 369.38, 939.75 362.23 C 939.98 355.09, 940.44 351.23, 941.26 343.87 C 942.09 336.50, 942.76 332.35, 943.88 325.41 C 945.01 318.47, 945.63 314.96, 946.89 309.18 C 948.16 303.39, 948.99 300.83, 950.21 296.49 C 951.42 292.15, 952.70 290.18, 952.98 287.46 C 953.26 284.74, 952.78 283.37, 951.60 282.89 C 950.41 282.40, 949.07 282.97, 947.07 285.03 C 945.06 287.09, 944.24 289.12, 941.57 293.19 C 938.89 297.25, 937.39 299.89, 933.72 305.36 C 930.04 310.83, 927.72 314.17, 923.21 320.54 C 918.70 326.92, 916.00 330.33, 911.15 337.25 C 906.31 344.16, 903.47 347.95, 898.99 355.11 C 894.52 362.27, 892.43 366.20, 888.77 373.04 C 885.11 379.88, 883.47 383.52, 880.69 389.31 C 877.91 395.10, 876.37 397.75, 874.87 402.00 C 873.36 406.25, 873.05 408.29, 873.19 410.57 C 873.32 412.84, 874.35 413.66, 875.55 413.37 C 876.75 413.08, 877.45 412.07, 879.18 409.11 C 880.90 406.15, 881.76 403.58, 884.19 398.58 C 886.62 393.57, 888.16 390.50, 891.34 384.08 C 894.52 377.66, 896.43 373.86, 900.08 366.47 C 903.72 359.07, 906.03 354.99, 909.55 347.09 C 913.07 339.19, 914.74 334.66, 917.69 326.98 C 920.63 319.29, 921.94 315.32, 924.29 308.67 C 926.65 302.01, 927.82 298.69, 929.46 293.71 C 931.09 288.73, 931.68 286.83, 932.47 283.76 C 933.26 280.70, 933.42 279.80, 933.40 278.38 C 933.38 276.97, 932.79 277.04, 932.37 276.71 C 931.95 276.37, 931.72 276.53, 931.30 276.71" style="stroke: black; fill: black;"/><path d="M 1057.50,362.85 C 1056.81 363.53, 1056.51 364.32, 1055.73 366.54 C 1054.94 368.76, 1054.54 370.56, 1053.58 373.93 C 1052.63 377.31, 1052.14 379.68, 1050.95 383.44 C 1049.76 387.20, 1048.67 389.29, 1047.64 392.73 C 1046.60 396.17, 1046.22 398.11, 1045.76 400.64 C 1045.29 403.17, 1045.13 404.35, 1045.30 405.38 C 1045.48 406.42, 1045.86 406.57, 1046.62 405.81 C 1047.37 405.05, 1048.16 403.97, 1049.09 401.59 C 1050.02 399.20, 1050.17 397.26, 1051.28 393.88 C 1052.40 390.49, 1053.35 388.41, 1054.64 384.66 C 1055.93 380.91, 1056.73 378.57, 1057.74 375.13 C 1058.74 371.69, 1059.38 369.85, 1059.67 367.45 C 1059.95 365.05, 1059.60 364.03, 1059.16 363.11 C 1058.73 362.19, 1058.18 362.16, 1057.50 362.85" style="stroke: black; fill: black;"/><path d="M 1099.85,327.89 C 1099.92 327.16, 1099.27 326.64, 1098.79 326.52 C 1098.31 326.41, 1097.85 326.93, 1097.46 327.30 C 1097.06 327.67, 1096.97 327.84, 1096.83 328.36 C 1096.69 328.88, 1096.44 329.52, 1096.76 329.89 C 1097.08 330.25, 1097.83 330.59, 1098.45 330.19 C 1099.06 329.79, 1099.78 328.62, 1099.85 327.89" style="stroke: black; fill: black;"/><path d="M 1124.25,368.08 C 1123.76 367.52, 1123.33 367.14, 1121.71 366.89 C 1120.10 366.64, 1118.85 366.24, 1116.16 366.82 C 1113.46 367.40, 1111.74 368.26, 1108.26 369.78 C 1104.77 371.31, 1102.37 372.27, 1098.73 374.44 C 1095.09 376.62, 1093.06 377.85, 1090.06 380.65 C 1087.06 383.46, 1085.61 385.24, 1083.75 388.49 C 1081.88 391.73, 1080.99 393.75, 1080.72 396.88 C 1080.45 400.01, 1080.73 401.67, 1082.40 404.13 C 1084.08 406.60, 1085.48 407.91, 1089.08 409.20 C 1092.68 410.49, 1095.19 410.76, 1100.40 410.59 C 1105.60 410.42, 1108.47 409.75, 1115.12 408.35 C 1121.78 406.95, 1125.86 405.97, 1133.68 403.58 C 1141.49 401.19, 1146.12 399.47, 1154.20 396.42 C 1162.27 393.38, 1166.44 391.46, 1174.04 388.35 C 1181.65 385.24, 1185.63 383.56, 1192.21 380.87 C 1198.79 378.18, 1202.39 376.80, 1206.94 374.91 C 1211.48 373.02, 1213.57 372.44, 1214.94 371.43 C 1216.31 370.43, 1215.61 369.66, 1213.77 369.87 C 1211.94 370.09, 1209.64 370.73, 1205.74 372.53 C 1201.85 374.32, 1198.91 376.06, 1194.31 378.85 C 1189.71 381.64, 1186.85 383.45, 1182.76 386.48 C 1178.68 389.51, 1176.46 391.16, 1173.87 394.00 C 1171.28 396.83, 1170.25 398.40, 1169.83 400.65 C 1169.42 402.89, 1169.98 404.18, 1171.80 405.22 C 1173.61 406.25, 1175.33 406.29, 1178.91 405.83 C 1182.49 405.38, 1184.79 404.66, 1189.69 402.94 C 1194.59 401.21, 1197.94 399.88, 1203.42 397.23 C 1208.90 394.58, 1212.11 392.81, 1217.07 389.68 C 1222.02 386.56, 1224.60 384.90, 1228.20 381.63 C 1231.80 378.35, 1233.49 376.37, 1235.09 373.30 C 1236.69 370.22, 1237.13 368.47, 1236.20 366.25 C 1235.28 364.04, 1233.64 363.07, 1230.46 362.23 C 1227.28 361.39, 1224.58 361.42, 1220.29 362.07 C 1216.00 362.73, 1213.10 363.98, 1209.01 365.50 C 1204.92 367.02, 1202.46 368.19, 1199.84 369.69 C 1197.22 371.19, 1196.57 372.13, 1195.90 373.02 C 1195.23 373.90, 1195.40 374.16, 1196.48 374.12 C 1197.57 374.08, 1198.54 373.83, 1201.30 372.81 C 1204.07 371.78, 1206.38 370.42, 1210.29 368.99 C 1214.21 367.55, 1216.96 366.30, 1220.86 365.65 C 1224.75 365.00, 1227.12 365.45, 1229.78 365.75 C 1232.43 366.05, 1233.58 365.93, 1234.11 367.15 C 1234.64 368.36, 1233.98 369.30, 1232.45 371.82 C 1230.92 374.34, 1229.78 376.57, 1226.45 379.74 C 1223.12 382.91, 1220.62 384.63, 1215.80 387.67 C 1210.98 390.71, 1207.75 392.46, 1202.34 394.94 C 1196.93 397.41, 1193.54 398.58, 1188.74 400.05 C 1183.94 401.51, 1181.56 401.64, 1178.35 402.24 C 1175.13 402.85, 1173.88 403.25, 1172.65 403.07 C 1171.43 402.90, 1171.51 402.76, 1172.21 401.38 C 1172.92 400.00, 1173.73 398.70, 1176.19 396.18 C 1178.64 393.67, 1180.52 391.70, 1184.48 388.80 C 1188.44 385.90, 1191.43 384.32, 1195.99 381.69 C 1200.55 379.06, 1203.57 377.64, 1207.29 375.66 C 1211.02 373.68, 1213.19 372.97, 1214.60 371.80 C 1216.00 370.64, 1216.03 369.65, 1214.32 369.84 C 1212.61 370.02, 1210.60 370.87, 1206.04 372.75 C 1201.48 374.63, 1198.04 376.42, 1191.52 379.24 C 1185.00 382.07, 1181.02 383.75, 1173.44 386.89 C 1165.87 390.02, 1161.69 391.92, 1153.64 394.92 C 1145.58 397.92, 1140.96 399.62, 1133.17 401.89 C 1125.39 404.17, 1121.28 405.09, 1114.72 406.29 C 1108.15 407.50, 1105.26 407.97, 1100.36 407.93 C 1095.46 407.90, 1093.24 407.26, 1090.20 406.13 C 1087.16 405.00, 1086.33 404.06, 1085.17 402.28 C 1084.01 400.51, 1084.08 399.68, 1084.40 397.26 C 1084.72 394.85, 1085.17 393.03, 1086.76 390.20 C 1088.34 387.36, 1089.58 385.62, 1092.33 383.09 C 1095.07 380.56, 1096.99 379.41, 1100.49 377.54 C 1103.99 375.68, 1106.43 374.91, 1109.81 373.76 C 1113.18 372.61, 1114.92 372.45, 1117.35 371.81 C 1119.77 371.16, 1120.57 370.98, 1121.93 370.55 C 1123.29 370.12, 1123.68 370.17, 1124.15 369.67 C 1124.61 369.18, 1124.74 368.63, 1124.25 368.08" style="stroke: black; fill: black;"/></svg>