<svg xmlns="http://www.w3.org/2000/svg" id="canvas" viewBox="219.547 259.584 978.718 204.901"><path d="M 228.93,303.22 C 228.43 303.82, 227.91 304.22, 227.52 306.46 C 227.12 308.70, 227.15 310.15, 226.97 314.42 C 226.79 318.69, 226.74 321.39, 226.62 327.82 C 226.50 334.25, 226.52 338.33, 226.36 346.57 C 226.20 354.82, 226.10 359.64, 225.83 369.05 C 225.56 378.45, 225.30 383.90, 225.01 393.60 C 224.72 403.31, 224.63 408.81, 224.37 417.56 C 224.11 426.30, 223.89 430.90, 223.70 437.34 C 223.52 443.78, 223.26 446.64, 223.43 449.76 C 223.61 452.87, 224.30 453.72, 224.59 452.92 C 224.89 452.13, 224.99 450.43, 224.90 445.78 C 224.80 441.13, 224.34 437.59, 224.12 429.68 C 223.89 421.77, 223.71 416.45, 223.79 406.22 C 223.86 396.00, 224.01 389.95, 224.50 378.55 C 224.98 367.16, 225.33 360.71, 226.21 349.24 C 227.08 337.76, 227.68 331.73, 228.87 321.16 C 230.06 310.60, 230.73 305.21, 232.15 296.40 C 233.58 287.60, 234.55 283.33, 236.00 277.15 C 237.44 270.97, 238.52 268.09, 239.39 265.50 C 240.26 262.91, 239.90 262.57, 240.36 264.19 C 240.83 265.81, 241.07 267.97, 241.72 273.60 C 242.37 279.22, 242.69 283.59, 243.61 292.31 C 244.54 301.03, 245.05 306.56, 246.37 317.20 C 247.68 327.84, 248.49 333.90, 250.18 345.52 C 251.86 357.15, 252.82 363.55, 254.80 375.34 C 256.78 387.13, 257.99 393.65, 260.09 404.47 C 262.19 415.29, 263.26 420.72, 265.29 429.44 C 267.32 438.17, 268.35 442.17, 270.24 448.09 C 272.14 454.01, 272.89 456.47, 274.76 459.05 C 276.62 461.63, 277.95 461.94, 279.58 461.00 C 281.20 460.06, 281.98 458.75, 282.90 454.35 C 283.83 449.95, 283.92 446.68, 284.20 439.00 C 284.48 431.32, 284.36 426.06, 284.30 415.96 C 284.25 405.86, 284.14 399.18, 283.93 388.51 C 283.72 377.84, 283.49 372.05, 283.23 362.62 C 282.97 353.18, 282.82 348.53, 282.63 341.32 C 282.43 334.11, 282.28 331.27, 282.26 326.57 C 282.23 321.88, 282.49 320.47, 282.50 317.84 C 282.51 315.22, 282.51 314.33, 282.32 313.44 C 282.13 312.55, 281.86 312.52, 281.54 313.39 C 281.22 314.25, 280.90 315.14, 280.73 317.78 C 280.57 320.42, 280.57 321.88, 280.71 326.60 C 280.86 331.32, 281.15 334.15, 281.45 341.36 C 281.74 348.57, 281.91 353.21, 282.20 362.65 C 282.50 372.08, 282.72 377.87, 282.90 388.53 C 283.09 399.19, 283.17 405.88, 283.13 415.96 C 283.09 426.04, 283.12 431.33, 282.70 438.93 C 282.28 446.54, 281.79 449.76, 281.04 453.99 C 280.29 458.21, 279.91 459.24, 278.94 460.06 C 277.97 460.89, 277.68 460.58, 276.18 458.10 C 274.69 455.63, 273.45 453.47, 271.46 447.69 C 269.48 441.91, 268.37 437.89, 266.26 429.21 C 264.16 420.54, 263.07 415.11, 260.95 404.31 C 258.82 393.50, 257.60 386.99, 255.62 375.21 C 253.64 363.42, 252.69 357.03, 251.04 345.40 C 249.40 333.77, 248.60 327.72, 247.39 317.08 C 246.18 306.43, 245.77 300.91, 244.97 292.17 C 244.18 283.44, 244.11 279.10, 243.40 273.40 C 242.70 267.70, 242.56 265.38, 241.45 263.67 C 240.34 261.96, 239.20 262.21, 237.85 264.85 C 236.50 267.49, 236.05 270.58, 234.71 276.86 C 233.37 283.14, 232.50 287.40, 231.15 296.25 C 229.81 305.09, 229.15 310.48, 227.98 321.07 C 226.82 331.65, 226.23 337.68, 225.34 349.17 C 224.46 360.66, 224.11 367.11, 223.57 378.51 C 223.04 389.92, 222.86 395.97, 222.67 406.21 C 222.48 416.44, 222.55 421.78, 222.62 429.70 C 222.70 437.63, 222.76 441.20, 223.04 445.86 C 223.32 450.51, 223.61 452.19, 224.04 452.97 C 224.46 453.75, 224.97 452.89, 225.18 449.76 C 225.39 446.64, 225.02 443.80, 225.09 437.36 C 225.15 430.93, 225.30 426.33, 225.49 417.59 C 225.69 408.84, 225.78 403.34, 226.07 393.64 C 226.36 383.93, 226.63 378.49, 226.95 369.08 C 227.27 359.68, 227.40 354.85, 227.69 346.61 C 227.97 338.37, 228.03 334.29, 228.38 327.89 C 228.73 321.48, 229.09 318.80, 229.44 314.57 C 229.80 310.35, 230.04 309.00, 230.16 306.77 C 230.28 304.54, 230.30 304.15, 230.05 303.44 C 229.81 302.73, 229.44 302.61, 228.93 303.22" style="stroke: black; fill: black;"/><path d="M 302.84,369.22 C 302.41 370.04, 302.09 370.91, 301.96 373.34 C 301.83 375.76, 301.92 377.36, 302.20 381.33 C 302.47 385.31, 302.69 387.94, 303.32 393.21 C 303.95 398.47, 304.36 401.83, 305.36 407.66 C 306.36 413.49, 307.04 416.86, 308.31 422.36 C 309.59 427.87, 310.27 430.84, 311.74 435.18 C 313.21 439.52, 313.86 441.61, 315.66 444.07 C 317.47 446.53, 318.70 447.28, 320.76 447.47 C 322.81 447.65, 324.05 447.21, 325.94 445.00 C 327.82 442.79, 328.63 440.71, 330.18 436.42 C 331.73 432.13, 332.44 429.05, 333.69 423.54 C 334.94 418.03, 335.41 414.49, 336.42 408.86 C 337.43 403.24, 338.00 399.76, 338.75 395.41 C 339.51 391.05, 339.97 388.94, 340.19 387.10 C 340.42 385.25, 339.91 385.09, 339.90 386.19 C 339.88 387.29, 339.68 388.92, 340.13 392.59 C 340.58 396.27, 341.07 399.38, 342.15 404.55 C 343.22 409.73, 343.86 413.14, 345.50 418.48 C 347.14 423.82, 348.09 426.82, 350.34 431.25 C 352.59 435.69, 353.94 437.93, 356.76 440.66 C 359.57 443.40, 361.25 444.41, 364.43 444.92 C 367.60 445.44, 369.46 444.95, 372.62 443.24 C 375.79 441.52, 377.40 439.94, 380.25 436.35 C 383.09 432.76, 384.61 430.13, 386.86 425.29 C 389.12 420.46, 390.11 417.38, 391.52 412.17 C 392.94 406.96, 393.49 403.97, 393.93 399.26 C 394.38 394.54, 394.48 392.01, 393.77 388.61 C 393.05 385.20, 392.17 383.63, 390.36 382.24 C 388.54 380.85, 386.95 380.64, 384.68 381.64 C 382.41 382.63, 380.96 383.97, 379.00 387.22 C 377.04 390.47, 376.07 393.01, 374.88 397.90 C 373.69 402.79, 373.18 406.08, 373.04 411.66 C 372.90 417.25, 373.02 420.68, 374.17 425.83 C 375.32 430.98, 376.34 433.72, 378.78 437.41 C 381.21 441.10, 382.91 442.86, 386.35 444.28 C 389.79 445.71, 392.00 445.68, 395.97 444.53 C 399.94 443.38, 402.17 441.89, 406.20 438.53 C 410.23 435.17, 412.37 432.59, 416.11 427.72 C 419.85 422.86, 421.71 419.64, 424.91 414.20 C 428.12 408.75, 429.62 405.39, 432.13 400.49 C 434.65 395.59, 435.89 393.10, 437.49 389.71 C 439.09 386.33, 439.59 384.98, 440.15 383.58 C 440.70 382.19, 440.37 381.99, 440.26 382.74 C 440.16 383.50, 439.55 384.77, 439.63 387.34 C 439.70 389.90, 440.00 391.87, 440.63 395.57 C 441.26 399.27, 441.84 401.58, 442.78 405.83 C 443.71 410.09, 444.33 412.58, 445.30 416.84 C 446.28 421.09, 446.93 423.35, 447.67 427.10 C 448.40 430.86, 448.67 432.72, 449.00 435.60 C 449.33 438.48, 449.38 439.70, 449.32 441.50 C 449.25 443.31, 449.09 443.90, 448.67 444.63 C 448.25 445.36, 447.93 445.43, 447.23 445.16 C 446.53 444.88, 446.04 444.44, 445.17 443.26 C 444.31 442.08, 443.81 441.32, 442.89 439.27 C 441.96 437.21, 441.17 435.80, 440.56 432.97 C 439.94 430.13, 439.59 428.50, 439.82 425.09 C 440.05 421.68, 440.38 419.73, 441.72 415.93 C 443.05 412.13, 444.07 410.06, 446.50 406.10 C 448.92 402.14, 450.59 400.12, 453.82 396.14 C 457.06 392.16, 458.93 390.16, 462.67 386.18 C 466.41 382.20, 468.57 380.20, 472.52 376.25 C 476.46 372.30, 478.63 370.31, 482.40 366.42 C 486.17 362.54, 487.97 360.51, 491.36 356.83 C 494.76 353.15, 496.53 351.24, 499.38 348.02 C 502.23 344.81, 503.69 343.10, 505.60 340.75 C 507.50 338.39, 508.16 337.01, 508.90 336.25 C 509.65 335.49, 509.39 335.35, 509.31 336.95 C 509.24 338.55, 509.00 340.07, 508.51 344.24 C 508.02 348.42, 507.70 351.50, 506.87 357.81 C 506.04 364.12, 505.35 368.28, 504.36 375.78 C 503.37 383.28, 502.68 387.67, 501.93 395.32 C 501.18 402.98, 500.94 407.13, 500.63 414.05 C 500.31 420.97, 500.29 424.65, 500.37 429.91 C 500.44 435.18, 500.37 437.50, 501.01 440.36 C 501.65 443.22, 502.54 443.92, 503.58 444.22 C 504.62 444.51, 505.48 443.72, 506.21 441.83 C 506.95 439.95, 507.25 438.20, 507.28 434.79 C 507.30 431.39, 506.86 428.97, 506.34 424.82 C 505.82 420.67, 505.40 417.99, 504.69 414.03 C 503.97 410.08, 503.66 407.75, 502.75 405.05 C 501.84 402.34, 500.92 401.37, 500.13 400.50 C 499.35 399.63, 498.74 400.02, 498.82 400.70 C 498.89 401.38, 499.00 402.68, 500.49 403.92 C 501.98 405.16, 503.46 406.24, 506.26 406.90 C 509.05 407.56, 510.92 407.46, 514.47 407.21 C 518.03 406.97, 520.16 406.72, 524.03 405.66 C 527.91 404.59, 530.06 403.54, 533.85 401.90 C 537.64 400.25, 539.71 399.02, 542.99 397.43 C 546.27 395.84, 548.02 395.02, 550.26 393.95 C 552.49 392.87, 553.17 391.98, 554.17 392.04 C 555.17 392.11, 555.05 392.43, 555.27 394.27 C 555.49 396.12, 555.44 397.75, 555.28 401.28 C 555.12 404.81, 554.92 407.44, 554.46 411.94 C 554.01 416.45, 553.58 419.31, 553.00 423.80 C 552.42 428.29, 551.84 430.93, 551.58 434.40 C 551.32 437.87, 551.28 439.61, 551.68 441.14 C 552.07 442.67, 552.76 442.89, 553.56 442.05 C 554.36 441.20, 554.99 439.89, 555.67 436.92 C 556.36 433.95, 556.45 431.47, 556.99 427.20 C 557.54 422.93, 557.85 419.96, 558.41 415.56 C 558.96 411.15, 559.21 408.58, 559.77 405.17 C 560.33 401.77, 560.60 400.40, 561.22 398.53 C 561.83 396.67, 562.04 396.32, 562.86 395.87 C 563.67 395.41, 563.88 395.84, 565.29 396.27 C 566.70 396.70, 567.63 397.50, 569.91 398.00 C 572.18 398.50, 573.75 398.85, 576.67 398.76 C 579.58 398.68, 581.25 398.36, 584.47 397.57 C 587.69 396.78, 589.54 396.16, 592.77 394.81 C 596.00 393.46, 597.72 392.53, 600.63 390.82 C 603.53 389.12, 605.11 388.10, 607.28 386.27 C 609.45 384.45, 610.47 383.33, 611.46 381.71 C 612.45 380.08, 612.62 379.11, 612.24 378.14 C 611.87 377.17, 611.10 376.65, 609.59 376.85 C 608.09 377.04, 606.67 377.47, 604.70 379.10 C 602.74 380.73, 601.64 382.08, 599.77 385.01 C 597.90 387.94, 596.87 389.92, 595.35 393.74 C 593.83 397.55, 592.96 399.99, 592.16 404.08 C 591.36 408.17, 591.20 410.57, 591.35 414.18 C 591.50 417.80, 591.74 419.65, 592.89 422.15 C 594.04 424.64, 595.08 425.75, 597.10 426.65 C 599.11 427.55, 600.66 427.58, 602.98 426.63 C 605.29 425.67, 606.64 424.50, 608.68 421.88 C 610.73 419.25, 611.74 417.24, 613.19 413.49 C 614.63 409.75, 615.20 407.27, 615.92 403.17 C 616.65 399.07, 616.86 396.62, 616.80 393.00 C 616.74 389.39, 616.52 387.43, 615.62 385.08 C 614.72 382.74, 613.69 381.75, 612.30 381.27 C 610.91 380.79, 609.82 381.28, 608.66 382.66 C 607.51 384.05, 606.78 385.55, 606.54 388.20 C 606.29 390.84, 606.48 392.79, 607.44 395.89 C 608.39 399.00, 609.29 400.82, 611.30 403.72 C 613.31 406.62, 614.68 408.29, 617.50 410.39 C 620.31 412.49, 622.08 413.25, 625.38 414.21 C 628.67 415.18, 630.59 415.42, 633.98 415.22 C 637.38 415.02, 639.23 414.63, 642.35 413.23 C 645.46 411.83, 647.20 410.32, 649.55 408.21 C 651.91 406.11, 652.88 404.69, 654.14 402.71 C 655.39 400.74, 655.70 399.31, 655.84 398.32 C 655.99 397.33, 655.64 397.19, 654.87 397.74 C 654.10 398.30, 653.49 399.47, 652.00 401.08 C 650.51 402.69, 649.60 403.90, 647.42 405.80 C 645.24 407.70, 643.83 409.26, 641.11 410.59 C 638.39 411.91, 636.80 412.24, 633.81 412.43 C 630.83 412.62, 629.09 412.39, 626.17 411.52 C 623.25 410.66, 621.69 410.01, 619.23 408.11 C 616.77 406.21, 615.54 404.66, 613.88 402.02 C 612.22 399.37, 611.66 397.62, 610.93 394.88 C 610.19 392.15, 610.26 390.55, 610.20 388.33 C 610.13 386.11, 610.32 384.93, 610.61 383.78 C 610.91 382.62, 611.20 382.14, 611.67 382.57 C 612.15 382.99, 612.52 383.79, 612.98 385.89 C 613.45 387.99, 613.93 389.69, 614.00 393.06 C 614.06 396.42, 614.01 398.83, 613.32 402.71 C 612.63 406.59, 612.00 409.00, 610.57 412.44 C 609.13 415.89, 607.90 417.60, 606.15 419.95 C 604.40 422.30, 603.44 423.26, 601.81 424.20 C 600.18 425.14, 599.30 425.28, 598.01 424.66 C 596.73 424.04, 596.18 423.21, 595.39 421.09 C 594.60 418.97, 594.19 417.37, 594.05 414.07 C 593.92 410.77, 593.93 408.43, 594.70 404.58 C 595.46 400.73, 596.31 398.34, 597.89 394.81 C 599.48 391.28, 600.73 389.52, 602.60 386.93 C 604.48 384.34, 605.69 383.48, 607.25 381.88 C 608.82 380.28, 609.64 379.66, 610.43 378.94 C 611.21 378.22, 611.39 378.07, 611.19 378.29 C 610.98 378.50, 610.59 378.94, 609.38 380.02 C 608.18 381.10, 607.22 382.04, 605.15 383.68 C 603.09 385.32, 601.77 386.56, 599.06 388.23 C 596.36 389.91, 594.69 390.81, 591.64 392.05 C 588.58 393.29, 586.78 393.84, 583.77 394.42 C 580.77 395.01, 579.26 394.98, 576.61 394.98 C 573.96 394.98, 572.71 394.66, 570.51 394.41 C 568.32 394.16, 567.35 393.73, 565.65 393.72 C 563.94 393.70, 563.32 393.57, 561.99 394.35 C 560.65 395.13, 559.94 395.55, 558.96 397.62 C 557.99 399.69, 557.73 401.20, 557.11 404.71 C 556.48 408.23, 556.44 410.80, 555.82 415.21 C 555.20 419.62, 554.69 422.53, 553.99 426.76 C 553.30 430.99, 552.65 433.38, 552.34 436.36 C 552.03 439.34, 552.23 440.72, 552.44 441.68 C 552.65 442.64, 553.00 442.54, 553.39 441.14 C 553.78 439.74, 553.99 438.08, 554.40 434.67 C 554.81 431.27, 554.89 428.59, 555.42 424.10 C 555.96 419.61, 556.49 416.78, 557.06 412.24 C 557.63 407.70, 558.16 405.11, 558.29 401.40 C 558.41 397.69, 558.44 395.89, 557.69 393.69 C 556.93 391.49, 556.22 390.88, 554.50 390.39 C 552.79 389.91, 551.68 390.34, 549.14 391.27 C 546.59 392.19, 545.04 393.34, 541.78 395.00 C 538.52 396.66, 536.52 397.96, 532.83 399.57 C 529.15 401.19, 527.06 402.18, 523.36 403.07 C 519.67 403.96, 517.60 404.08, 514.38 404.03 C 511.15 403.98, 509.67 403.42, 507.23 402.82 C 504.79 402.23, 503.73 401.64, 502.16 401.08 C 500.60 400.52, 500.12 400.02, 499.41 400.02 C 498.71 400.02, 498.60 399.91, 498.64 401.10 C 498.67 402.29, 498.93 403.28, 499.60 405.97 C 500.26 408.66, 501.19 410.72, 501.95 414.55 C 502.71 418.39, 503.01 421.09, 503.40 425.14 C 503.79 429.20, 503.77 431.59, 503.89 434.84 C 504.01 438.09, 503.99 439.63, 503.99 441.38 C 503.98 443.13, 504.04 443.88, 503.88 443.59 C 503.73 443.31, 503.58 442.71, 503.22 439.97 C 502.85 437.22, 502.29 435.03, 502.05 429.86 C 501.82 424.69, 501.78 420.99, 502.03 414.11 C 502.27 407.23, 502.51 403.08, 503.27 395.45 C 504.03 387.83, 504.74 383.46, 505.83 375.98 C 506.93 368.51, 507.73 364.38, 508.75 358.08 C 509.77 351.79, 510.45 348.80, 510.94 344.53 C 511.43 340.25, 511.73 338.62, 511.19 336.71 C 510.64 334.80, 509.76 334.52, 508.22 334.97 C 506.69 335.43, 505.62 336.65, 503.52 338.98 C 501.43 341.31, 500.46 343.32, 497.75 346.64 C 495.05 349.96, 493.31 351.87, 489.99 355.58 C 486.67 359.30, 484.88 361.32, 481.14 365.21 C 477.40 369.10, 475.25 371.08, 471.29 375.03 C 467.34 378.97, 465.17 380.97, 461.38 384.96 C 457.59 388.94, 455.68 390.92, 452.35 394.93 C 449.02 398.93, 447.28 400.95, 444.71 404.99 C 442.14 409.02, 441.03 411.14, 439.49 415.11 C 437.96 419.07, 437.50 421.12, 437.04 424.82 C 436.58 428.51, 436.71 430.37, 437.19 433.58 C 437.68 436.79, 438.32 438.48, 439.46 440.86 C 440.60 443.23, 441.40 444.18, 442.88 445.46 C 444.37 446.74, 445.43 447.19, 446.89 447.26 C 448.36 447.33, 449.20 446.91, 450.19 445.81 C 451.19 444.71, 451.53 443.87, 451.86 441.76 C 452.19 439.65, 452.20 438.30, 451.84 435.27 C 451.48 432.24, 450.92 430.39, 450.07 426.60 C 449.22 422.81, 448.56 420.57, 447.60 416.32 C 446.65 412.06, 446.05 409.57, 445.30 405.33 C 444.54 401.09, 444.27 398.77, 443.81 395.10 C 443.35 391.42, 443.50 389.52, 442.99 386.95 C 442.48 384.39, 442.10 383.13, 441.26 382.28 C 440.42 381.43, 439.93 381.41, 438.77 382.71 C 437.61 384.00, 437.12 385.35, 435.47 388.75 C 433.83 392.14, 432.93 394.77, 430.53 399.69 C 428.13 404.61, 426.64 407.96, 423.47 413.35 C 420.31 418.74, 418.43 421.91, 414.73 426.65 C 411.03 431.39, 408.84 433.87, 404.98 437.06 C 401.11 440.24, 398.96 441.50, 395.39 442.56 C 391.83 443.63, 390.13 443.62, 387.14 442.38 C 384.15 441.13, 382.66 439.71, 380.44 436.32 C 378.22 432.93, 377.12 430.33, 376.04 425.41 C 374.96 420.49, 374.82 417.12, 375.03 411.73 C 375.25 406.34, 375.84 403.10, 377.10 398.47 C 378.35 393.84, 379.59 391.55, 381.31 388.59 C 383.03 385.62, 384.14 384.61, 385.71 383.63 C 387.27 382.66, 387.99 382.62, 389.12 383.71 C 390.26 384.79, 390.85 386.00, 391.40 389.07 C 391.95 392.14, 392.23 394.56, 391.88 399.08 C 391.53 403.60, 391.02 406.59, 389.64 411.66 C 388.27 416.73, 387.24 419.76, 385.02 424.42 C 382.79 429.08, 381.21 431.60, 378.50 434.95 C 375.80 438.30, 374.23 439.64, 371.49 441.18 C 368.75 442.71, 367.44 443.05, 364.79 442.64 C 362.14 442.23, 360.77 441.59, 358.24 439.14 C 355.70 436.68, 354.26 434.61, 352.10 430.36 C 349.94 426.12, 348.95 423.15, 347.44 417.90 C 345.92 412.64, 345.46 409.24, 344.53 404.09 C 343.61 398.94, 343.52 395.83, 342.81 392.17 C 342.10 388.51, 341.85 386.89, 340.99 385.77 C 340.12 384.66, 339.38 384.73, 338.50 386.58 C 337.61 388.43, 337.35 390.63, 336.55 395.02 C 335.75 399.40, 335.48 402.91, 334.50 408.52 C 333.53 414.13, 332.99 417.66, 331.66 423.06 C 330.34 428.47, 329.45 431.50, 327.89 435.56 C 326.32 439.62, 325.22 441.32, 323.83 443.38 C 322.43 445.44, 322.15 445.98, 320.92 445.84 C 319.69 445.70, 319.13 444.96, 317.67 442.69 C 316.22 440.42, 315.16 438.65, 313.64 434.51 C 312.13 430.36, 311.37 427.38, 310.08 421.95 C 308.79 416.52, 308.11 413.15, 307.19 407.36 C 306.27 401.57, 305.93 398.22, 305.48 392.98 C 305.02 387.75, 305.05 385.13, 304.92 381.19 C 304.78 377.26, 304.97 375.70, 304.80 373.32 C 304.64 370.93, 304.49 370.06, 304.10 369.25 C 303.70 368.43, 303.26 368.40, 302.84 369.22" style="stroke: black; fill: black;"/><path d="M 733.88,314.10 C 733.57 315.15, 733.57 316.23, 733.60 319.28 C 733.62 322.32, 733.92 324.32, 734.00 329.32 C 734.07 334.32, 734.03 337.58, 733.98 344.29 C 733.94 351.00, 733.86 355.07, 733.78 362.87 C 733.70 370.68, 733.65 375.22, 733.60 383.33 C 733.55 391.44, 733.41 396.11, 733.52 403.42 C 733.63 410.74, 733.66 414.48, 734.16 419.91 C 734.65 425.34, 734.83 427.70, 735.98 430.57 C 737.12 433.43, 738.12 434.10, 739.86 434.23 C 741.61 434.35, 742.81 433.54, 744.71 431.20 C 746.60 428.86, 747.39 426.55, 749.34 422.54 C 751.29 418.52, 752.43 415.58, 754.47 411.13 C 756.52 406.69, 757.61 403.98, 759.57 400.31 C 761.53 396.65, 762.76 394.98, 764.27 392.80 C 765.78 390.62, 766.26 389.75, 767.14 389.42 C 768.01 389.09, 768.06 389.61, 768.63 391.17 C 769.20 392.74, 769.33 394.26, 769.98 397.24 C 770.62 400.21, 771.08 402.38, 771.86 406.03 C 772.63 409.68, 772.99 411.96, 773.87 415.48 C 774.75 418.99, 775.05 420.92, 776.27 423.60 C 777.48 426.28, 778.28 427.53, 779.95 428.89 C 781.62 430.26, 782.58 430.63, 784.62 430.43 C 786.65 430.24, 787.94 429.69, 790.13 427.91 C 792.31 426.14, 793.47 424.52, 795.54 421.58 C 797.61 418.64, 798.66 416.54, 800.48 413.23 C 802.30 409.92, 803.36 407.82, 804.63 405.01 C 805.91 402.20, 806.33 400.64, 806.87 399.19 C 807.40 397.74, 807.25 397.35, 807.32 397.76 C 807.39 398.17, 807.09 399.16, 807.22 401.25 C 807.34 403.34, 807.38 405.20, 807.95 408.22 C 808.52 411.24, 809.07 413.21, 810.06 416.36 C 811.05 419.50, 811.37 421.40, 812.90 423.96 C 814.44 426.52, 815.54 427.78, 817.73 429.14 C 819.91 430.50, 821.31 431.02, 823.83 430.75 C 826.34 430.48, 827.79 429.75, 830.31 427.78 C 832.84 425.81, 834.13 424.22, 836.46 420.89 C 838.79 417.56, 839.97 415.23, 841.96 411.14 C 843.96 407.05, 844.91 404.41, 846.44 400.44 C 847.96 396.46, 848.71 394.01, 849.58 391.26 C 850.45 388.51, 850.44 387.47, 850.77 386.68 C 851.10 385.89, 850.93 386.13, 851.24 387.31 C 851.56 388.48, 851.42 389.90, 852.35 392.55 C 853.27 395.20, 854.31 397.16, 855.85 400.56 C 857.40 403.96, 858.45 406.00, 860.07 409.55 C 861.69 413.09, 862.55 415.06, 863.96 418.28 C 865.36 421.50, 866.05 423.23, 867.09 425.64 C 868.12 428.06, 868.64 429.01, 869.15 430.35 C 869.66 431.69, 869.72 432.00, 869.64 432.34 C 869.56 432.68, 869.44 432.55, 868.74 432.06 C 868.05 431.56, 867.40 430.93, 866.17 429.88 C 864.93 428.83, 863.95 428.12, 862.56 426.81 C 861.17 425.50, 860.16 424.83, 859.21 423.34 C 858.27 421.84, 857.81 421.20, 857.84 419.35 C 857.88 417.49, 858.25 416.49, 859.40 414.06 C 860.54 411.62, 861.37 410.32, 863.58 407.18 C 865.79 404.04, 867.35 402.18, 870.46 398.35 C 873.57 394.51, 875.48 392.37, 879.12 388.01 C 882.75 383.65, 884.84 381.29, 888.64 376.55 C 892.44 371.81, 894.50 369.09, 898.11 364.30 C 901.73 359.50, 903.66 357.03, 906.74 352.58 C 909.82 348.13, 911.14 345.71, 913.49 342.06 C 915.85 338.40, 917.22 336.76, 918.50 334.31 C 919.78 331.85, 919.79 330.58, 919.89 329.79 C 919.98 328.99, 919.47 328.91, 918.99 330.33 C 918.51 331.75, 918.15 333.10, 917.48 336.88 C 916.82 340.65, 916.51 343.39, 915.66 349.19 C 914.80 355.00, 914.26 358.72, 913.23 365.90 C 912.19 373.08, 911.49 377.47, 910.49 385.09 C 909.49 392.70, 908.93 396.99, 908.21 403.98 C 907.49 410.97, 907.19 414.60, 906.87 420.04 C 906.55 425.47, 906.27 427.86, 906.61 431.16 C 906.95 434.45, 907.54 435.49, 908.56 436.49 C 909.59 437.50, 910.45 437.21, 911.73 436.19 C 913.01 435.17, 913.97 433.90, 914.95 431.39 C 915.93 428.89, 916.16 426.89, 916.63 423.66 C 917.10 420.43, 917.10 418.41, 917.32 415.24 C 917.54 412.07, 917.61 410.37, 917.74 407.81 C 917.87 405.25, 917.74 404.10, 917.97 402.44 C 918.20 400.79, 918.24 400.33, 918.87 399.55 C 919.50 398.77, 919.84 398.74, 921.12 398.53 C 922.41 398.32, 923.25 398.53, 925.30 398.51 C 927.36 398.50, 928.76 398.63, 931.39 398.44 C 934.03 398.25, 935.63 398.09, 938.48 397.55 C 941.33 397.02, 942.89 396.68, 945.64 395.78 C 948.39 394.88, 949.90 394.33, 952.23 393.07 C 954.57 391.80, 955.76 390.93, 957.31 389.46 C 958.86 387.98, 959.48 387.10, 960.00 385.71 C 960.52 384.32, 960.47 383.48, 959.91 382.51 C 959.35 381.53, 958.62 380.98, 957.21 380.85 C 955.81 380.71, 954.69 380.88, 952.87 381.83 C 951.05 382.78, 949.92 383.45, 948.14 385.60 C 946.35 387.74, 945.33 389.34, 943.94 392.57 C 942.55 395.80, 941.85 397.85, 941.18 401.73 C 940.51 405.61, 940.31 407.99, 940.61 411.95 C 940.90 415.91, 941.31 418.15, 942.65 421.53 C 943.99 424.92, 945.05 426.71, 947.31 428.89 C 949.57 431.06, 951.16 431.83, 953.94 432.41 C 956.72 433.00, 958.47 432.90, 961.22 431.83 C 963.96 430.76, 965.54 429.59, 967.68 427.05 C 969.81 424.50, 970.80 422.62, 971.89 419.11 C 972.98 415.59, 973.25 413.27, 973.11 409.47 C 972.98 405.68, 972.49 403.54, 971.23 400.13 C 969.97 396.72, 968.82 394.97, 966.81 392.42 C 964.80 389.86, 963.29 388.77, 961.18 387.36 C 959.07 385.95, 957.81 385.64, 956.24 385.37 C 954.67 385.10, 953.79 385.51, 953.32 386.03 C 952.86 386.54, 952.98 387.30, 953.91 387.93 C 954.84 388.56, 955.76 389.05, 957.99 389.18 C 960.21 389.31, 961.80 389.13, 965.03 388.59 C 968.26 388.05, 970.37 387.35, 974.15 386.47 C 977.94 385.59, 980.14 385.01, 983.96 384.18 C 987.78 383.36, 989.87 382.86, 993.23 382.34 C 996.59 381.83, 998.27 381.50, 1000.74 381.61 C 1003.22 381.72, 1004.18 381.87, 1005.61 382.89 C 1007.03 383.91, 1007.38 384.68, 1007.87 386.71 C 1008.36 388.74, 1008.22 389.93, 1008.05 393.04 C 1007.89 396.14, 1007.61 398.31, 1007.04 402.23 C 1006.47 406.16, 1005.99 408.72, 1005.19 412.66 C 1004.39 416.60, 1003.49 418.86, 1003.03 421.93 C 1002.58 425.00, 1002.53 426.54, 1002.90 428.01 C 1003.26 429.49, 1003.88 429.90, 1004.87 429.32 C 1005.85 428.73, 1006.72 427.68, 1007.81 425.10 C 1008.89 422.52, 1009.22 420.15, 1010.30 416.42 C 1011.37 412.69, 1011.97 410.25, 1013.19 406.45 C 1014.41 402.64, 1015.19 400.46, 1016.39 397.40 C 1017.58 394.35, 1018.13 392.99, 1019.17 391.16 C 1020.22 389.33, 1020.55 388.85, 1021.59 388.24 C 1022.64 387.62, 1023.10 387.82, 1024.41 388.08 C 1025.73 388.34, 1026.41 388.96, 1028.19 389.54 C 1029.97 390.12, 1031.08 390.51, 1033.31 390.98 C 1035.55 391.46, 1036.89 391.63, 1039.36 391.92 C 1041.82 392.21, 1043.21 392.36, 1045.65 392.43 C 1048.08 392.49, 1049.41 392.49, 1051.54 392.25 C 1053.68 392.02, 1054.84 391.71, 1056.31 391.26 C 1057.78 390.81, 1058.38 390.25, 1058.89 390.00 C 1059.39 389.75, 1059.27 389.37, 1058.84 390.01 C 1058.42 390.65, 1057.66 391.13, 1056.78 393.19 C 1055.89 395.25, 1055.28 396.98, 1054.44 400.31 C 1053.59 403.65, 1053.05 405.97, 1052.55 409.86 C 1052.05 413.75, 1051.77 415.99, 1051.94 419.77 C 1052.10 423.56, 1052.16 425.87, 1053.39 428.77 C 1054.62 431.67, 1056.06 432.81, 1058.08 434.28 C 1060.09 435.75, 1061.54 435.93, 1063.47 436.12 C 1065.39 436.32, 1066.88 435.68, 1067.71 435.25 C 1068.53 434.82, 1068.38 434.28, 1067.61 433.97 C 1066.84 433.67, 1065.43 434.10, 1063.86 433.73 C 1062.28 433.35, 1061.27 433.31, 1059.72 432.10 C 1058.17 430.88, 1057.11 430.13, 1056.11 427.65 C 1055.11 425.16, 1054.84 423.13, 1054.71 419.66 C 1054.59 416.19, 1054.83 413.98, 1055.48 410.30 C 1056.13 406.63, 1056.99 404.47, 1057.95 401.29 C 1058.92 398.10, 1059.75 396.59, 1060.31 394.37 C 1060.86 392.15, 1060.99 391.40, 1060.73 390.18 C 1060.48 388.97, 1060.04 388.70, 1059.04 388.31 C 1058.04 387.93, 1057.30 388.13, 1055.74 388.25 C 1054.18 388.37, 1053.24 388.78, 1051.25 388.91 C 1049.26 389.04, 1048.08 389.03, 1045.79 388.90 C 1043.50 388.77, 1042.16 388.57, 1039.81 388.26 C 1037.45 387.96, 1036.19 387.76, 1034.03 387.36 C 1031.87 386.97, 1030.91 386.65, 1029.03 386.29 C 1027.15 385.92, 1026.31 385.51, 1024.62 385.52 C 1022.92 385.54, 1022.09 385.54, 1020.55 386.38 C 1019.01 387.23, 1018.28 387.75, 1016.91 389.74 C 1015.55 391.73, 1015.01 393.18, 1013.73 396.35 C 1012.45 399.51, 1011.82 401.74, 1010.51 405.55 C 1009.19 409.37, 1008.37 411.76, 1007.14 415.44 C 1005.91 419.12, 1004.99 421.30, 1004.34 423.95 C 1003.70 426.60, 1003.84 427.87, 1003.90 428.69 C 1003.97 429.51, 1004.21 429.30, 1004.66 428.07 C 1005.11 426.83, 1005.50 425.48, 1006.15 422.50 C 1006.80 419.52, 1007.16 417.15, 1007.88 413.18 C 1008.61 409.21, 1009.15 406.66, 1009.79 402.66 C 1010.44 398.66, 1010.96 396.53, 1011.11 393.18 C 1011.25 389.84, 1011.32 388.39, 1010.51 385.94 C 1009.70 383.49, 1008.97 382.37, 1007.05 380.93 C 1005.14 379.49, 1003.79 379.00, 1000.94 378.74 C 998.09 378.49, 996.31 379.08, 992.81 379.65 C 989.30 380.22, 987.26 380.79, 983.41 381.58 C 979.56 382.37, 977.35 382.94, 973.57 383.60 C 969.78 384.26, 967.63 384.52, 964.50 384.88 C 961.37 385.24, 959.96 385.18, 957.91 385.40 C 955.87 385.61, 955.18 385.67, 954.30 385.94 C 953.41 386.22, 953.25 386.41, 953.48 386.78 C 953.71 387.14, 954.28 387.15, 955.47 387.77 C 956.65 388.39, 957.62 388.59, 959.43 389.89 C 961.23 391.20, 962.63 392.05, 964.48 394.29 C 966.33 396.53, 967.48 398.04, 968.67 401.10 C 969.85 404.15, 970.29 406.13, 970.39 409.56 C 970.49 412.99, 970.17 415.14, 969.16 418.24 C 968.16 421.35, 967.16 422.93, 965.35 425.10 C 963.54 427.27, 962.27 428.16, 960.10 429.09 C 957.93 430.01, 956.67 430.18, 954.51 429.73 C 952.35 429.28, 951.17 428.68, 949.30 426.84 C 947.42 425.00, 946.35 423.56, 945.13 420.54 C 943.91 417.53, 943.46 415.43, 943.22 411.77 C 942.97 408.11, 943.19 405.81, 943.92 402.24 C 944.65 398.68, 945.44 396.76, 946.86 393.93 C 948.29 391.09, 949.48 389.88, 951.05 388.07 C 952.62 386.25, 953.44 385.78, 954.71 384.85 C 955.99 383.91, 956.67 383.71, 957.43 383.39 C 958.19 383.07, 958.43 383.02, 958.52 383.25 C 958.62 383.48, 958.53 383.79, 957.88 384.56 C 957.23 385.33, 956.72 385.99, 955.28 387.09 C 953.84 388.19, 952.81 389.00, 950.67 390.07 C 948.53 391.14, 947.15 391.66, 944.59 392.44 C 942.03 393.21, 940.55 393.50, 937.86 393.93 C 935.16 394.35, 933.66 394.37, 931.10 394.57 C 928.54 394.77, 927.21 394.65, 925.05 394.92 C 922.90 395.20, 921.92 395.29, 920.35 395.94 C 918.77 396.58, 918.18 396.97, 917.19 398.16 C 916.19 399.35, 915.91 399.99, 915.36 401.87 C 914.82 403.75, 914.73 404.93, 914.44 407.55 C 914.16 410.17, 914.25 411.85, 913.94 414.95 C 913.64 418.06, 913.41 420.01, 912.90 423.08 C 912.39 426.15, 911.90 427.91, 911.39 430.31 C 910.87 432.71, 910.70 434.00, 910.33 435.09 C 909.95 436.19, 909.83 436.62, 909.52 435.80 C 909.21 434.97, 908.97 434.11, 908.77 430.97 C 908.57 427.84, 908.34 425.48, 908.51 420.11 C 908.68 414.74, 908.94 411.09, 909.61 404.12 C 910.28 397.15, 910.83 392.87, 911.86 385.27 C 912.89 377.67, 913.60 373.28, 914.76 366.13 C 915.93 358.99, 916.59 355.29, 917.68 349.53 C 918.77 343.78, 919.58 341.15, 920.21 337.34 C 920.85 333.53, 921.06 332.12, 920.84 330.49 C 920.62 328.85, 920.05 328.67, 919.11 329.16 C 918.16 329.65, 917.59 330.58, 916.12 332.95 C 914.65 335.31, 913.90 337.26, 911.74 340.99 C 909.57 344.72, 908.29 347.14, 905.30 351.60 C 902.31 356.07, 900.40 358.53, 896.81 363.31 C 893.22 368.09, 891.17 370.80, 887.35 375.50 C 883.53 380.20, 881.43 382.53, 877.72 386.82 C 874.02 391.12, 872.07 393.22, 868.82 396.97 C 865.57 400.73, 863.94 402.48, 861.48 405.62 C 859.01 408.76, 857.82 409.94, 856.50 412.67 C 855.18 415.41, 854.91 416.85, 854.88 419.29 C 854.84 421.74, 855.35 422.80, 856.31 424.88 C 857.26 426.96, 858.12 428.02, 859.65 429.68 C 861.18 431.33, 862.26 432.21, 863.97 433.15 C 865.68 434.08, 866.85 434.36, 868.22 434.34 C 869.59 434.32, 870.18 433.94, 870.83 433.04 C 871.47 432.14, 871.63 431.56, 871.46 429.84 C 871.29 428.12, 870.97 427.00, 869.98 424.46 C 868.99 421.92, 867.98 420.35, 866.50 417.14 C 865.03 413.93, 864.14 411.99, 862.61 408.42 C 861.08 404.85, 860.22 402.74, 858.86 399.28 C 857.50 395.83, 857.04 393.74, 855.82 391.14 C 854.60 388.54, 853.97 387.36, 852.76 386.28 C 851.56 385.20, 850.99 384.95, 849.79 385.74 C 848.60 386.53, 847.93 387.48, 846.79 390.24 C 845.64 393.01, 845.48 395.60, 844.07 399.56 C 842.67 403.53, 841.73 406.11, 839.77 410.06 C 837.81 414.01, 836.54 416.25, 834.27 419.32 C 832.00 422.38, 830.56 423.63, 828.41 425.39 C 826.25 427.16, 825.32 427.86, 823.49 428.16 C 821.66 428.46, 820.79 428.04, 819.25 426.88 C 817.72 425.72, 816.96 424.65, 815.80 422.35 C 814.63 420.05, 814.20 418.37, 813.42 415.38 C 812.64 412.40, 812.49 410.41, 811.89 407.45 C 811.28 404.49, 811.16 402.67, 810.38 400.57 C 809.60 398.46, 809.07 397.44, 807.99 396.92 C 806.92 396.41, 806.27 396.66, 805.00 397.99 C 803.74 399.31, 803.10 400.81, 801.66 403.57 C 800.23 406.32, 799.57 408.55, 797.82 411.78 C 796.07 415.01, 794.89 416.97, 792.91 419.70 C 790.93 422.43, 789.65 423.72, 787.92 425.43 C 786.19 427.14, 785.53 427.89, 784.25 428.24 C 782.98 428.60, 782.56 428.38, 781.54 427.21 C 780.53 426.03, 780.14 424.86, 779.17 422.38 C 778.21 419.89, 777.57 418.15, 776.73 414.76 C 775.88 411.37, 775.63 409.08, 774.95 405.41 C 774.27 401.74, 774.19 399.49, 773.33 396.40 C 772.48 393.32, 771.98 391.69, 770.67 390.00 C 769.37 388.30, 768.54 387.70, 766.82 387.93 C 765.10 388.15, 763.96 388.87, 762.08 391.13 C 760.21 393.38, 759.40 395.40, 757.44 399.20 C 755.49 402.99, 754.39 405.68, 752.29 410.11 C 750.19 414.54, 748.92 417.46, 746.95 421.36 C 744.99 425.26, 743.87 427.27, 742.46 429.61 C 741.05 431.95, 740.81 432.98, 739.90 433.03 C 738.99 433.09, 738.74 432.53, 737.91 429.88 C 737.08 427.22, 736.36 425.04, 735.76 419.75 C 735.15 414.45, 735.04 410.68, 734.87 403.40 C 734.69 396.11, 734.82 391.44, 734.88 383.34 C 734.94 375.24, 735.00 370.70, 735.16 362.89 C 735.31 355.09, 735.46 351.03, 735.66 344.32 C 735.85 337.61, 736.03 334.36, 736.14 329.33 C 736.25 324.30, 736.41 322.25, 736.21 319.18 C 736.01 316.12, 735.60 315.02, 735.13 314.00 C 734.67 312.98, 734.18 313.04, 733.88 314.10" style="stroke: black; fill: black;"/><path d="M 1069.89,357.87 C 1070.38 357.75, 1070.78 357.59, 1070.80 357.44 C 1070.82 357.30, 1070.53 357.16, 1069.99 357.15 C 1069.45 357.14, 1068.62 357.25, 1068.11 357.39 C 1067.59 357.53, 1067.34 357.72, 1067.39 357.85 C 1067.45 357.98, 1067.87 358.04, 1068.37 358.04 C 1068.87 358.04, 1069.41 357.99, 1069.89 357.87" style="stroke: black; fill: black;"/><path d="M 1114.88,385.50 C 1115.55 385.29, 1116.43 384.72, 1116.91 383.62 C 1117.39 382.53, 1117.74 381.44, 1117.28 380.03 C 1116.82 378.62, 1116.18 377.43, 1114.61 376.59 C 1113.04 375.75, 1111.82 375.31, 1109.41 375.83 C 1106.99 376.35, 1105.37 377.08, 1102.53 379.17 C 1099.69 381.26, 1097.98 382.91, 1095.19 386.28 C 1092.41 389.64, 1090.83 391.95, 1088.60 396.00 C 1086.37 400.05, 1085.23 402.52, 1084.05 406.53 C 1082.88 410.54, 1082.50 412.81, 1082.72 416.06 C 1082.94 419.31, 1083.56 420.95, 1085.15 422.78 C 1086.73 424.60, 1088.08 425.26, 1090.65 425.20 C 1093.23 425.14, 1094.98 424.47, 1098.01 422.47 C 1101.05 420.47, 1102.64 418.67, 1105.81 415.20 C 1108.99 411.72, 1110.80 409.23, 1113.90 405.10 C 1117.00 400.97, 1118.92 398.21, 1121.32 394.54 C 1123.72 390.87, 1124.92 388.80, 1125.89 386.76 C 1126.87 384.72, 1126.44 384.00, 1126.19 384.35 C 1125.94 384.70, 1125.03 385.85, 1124.64 388.51 C 1124.25 391.17, 1123.91 393.65, 1124.25 397.65 C 1124.59 401.65, 1124.79 404.58, 1126.33 408.52 C 1127.88 412.46, 1128.94 414.66, 1131.96 417.34 C 1134.97 420.03, 1137.09 420.95, 1141.43 421.94 C 1145.77 422.93, 1148.54 423.08, 1153.67 422.28 C 1158.80 421.48, 1161.84 420.40, 1167.07 417.92 C 1172.30 415.45, 1175.38 413.13, 1179.80 409.90 C 1184.22 406.68, 1186.37 404.69, 1189.19 401.81 C 1192.00 398.93, 1192.68 397.52, 1193.89 395.52 C 1195.10 393.52, 1195.11 392.63, 1195.23 391.82 C 1195.36 391.00, 1195.13 390.92, 1194.54 391.44 C 1193.94 391.96, 1193.66 392.64, 1192.28 394.41 C 1190.89 396.17, 1190.33 397.47, 1187.60 400.26 C 1184.88 403.05, 1182.93 405.16, 1178.66 408.36 C 1174.40 411.56, 1171.33 413.85, 1166.28 416.25 C 1161.22 418.66, 1158.25 419.65, 1153.38 420.39 C 1148.50 421.12, 1145.87 420.87, 1141.89 419.93 C 1137.91 418.99, 1136.09 418.14, 1133.48 415.68 C 1130.86 413.22, 1130.03 411.27, 1128.82 407.62 C 1127.61 403.97, 1127.64 401.22, 1127.43 397.42 C 1127.21 393.63, 1127.88 391.32, 1127.74 388.65 C 1127.60 385.98, 1127.48 384.70, 1126.73 384.08 C 1125.97 383.45, 1125.46 383.70, 1123.97 385.53 C 1122.48 387.36, 1121.64 389.56, 1119.27 393.21 C 1116.90 396.86, 1115.17 399.70, 1112.13 403.77 C 1109.08 407.84, 1107.19 410.27, 1104.05 413.55 C 1100.92 416.83, 1099.18 418.32, 1096.47 420.16 C 1093.76 422.00, 1092.41 422.51, 1090.49 422.76 C 1088.56 423.00, 1087.86 422.76, 1086.85 421.39 C 1085.83 420.02, 1085.49 418.76, 1085.39 415.92 C 1085.30 413.08, 1085.31 410.95, 1086.36 407.19 C 1087.42 403.44, 1088.51 400.99, 1090.68 397.16 C 1092.84 393.32, 1094.45 391.07, 1097.20 388.00 C 1099.95 384.94, 1101.81 383.61, 1104.41 381.82 C 1107.01 380.03, 1108.43 379.59, 1110.22 379.05 C 1112.00 378.52, 1112.51 378.78, 1113.33 379.14 C 1114.14 379.50, 1114.17 380.17, 1114.31 380.87 C 1114.44 381.57, 1114.14 381.87, 1113.99 382.63 C 1113.84 383.39, 1113.38 384.08, 1113.56 384.66 C 1113.73 385.23, 1114.21 385.70, 1114.88 385.50" style="stroke: black; fill: black;"/></svg>