<svg xmlns="http://www.w3.org/2000/svg" id="canvas" viewBox="254.990 277.675 895.420 360.190"><path d="M 322.25,295.05 C 321.91 294.00, 321.19 293.14, 319.40 291.80 C 317.61 290.46, 316.28 289.08, 313.30 288.36 C 310.32 287.64, 308.20 287.25, 304.49 288.17 C 300.78 289.10, 298.73 289.74, 294.76 292.96 C 290.79 296.18, 288.71 298.25, 284.64 304.27 C 280.56 310.28, 278.25 313.98, 274.38 323.03 C 270.51 332.08, 268.26 337.94, 265.28 349.51 C 262.30 361.08, 260.92 368.11, 259.48 380.89 C 258.04 393.68, 257.83 400.93, 258.08 413.43 C 258.34 425.93, 258.88 432.68, 260.77 443.40 C 262.66 454.13, 264.12 459.39, 267.52 467.04 C 270.91 474.69, 273.18 477.86, 277.76 481.64 C 282.34 485.42, 285.14 486.42, 290.40 485.95 C 295.66 485.48, 298.52 483.96, 304.06 479.28 C 309.60 474.59, 312.69 470.87, 318.11 462.52 C 323.52 454.18, 326.46 448.67, 331.13 437.53 C 335.79 426.40, 338.07 419.53, 341.44 406.84 C 344.81 394.15, 346.26 386.83, 347.97 374.09 C 349.69 361.35, 350.06 354.54, 350.01 343.13 C 349.96 331.72, 349.50 326.10, 347.73 317.04 C 345.96 307.98, 344.56 304.04, 341.14 297.84 C 337.73 291.64, 335.26 289.40, 330.67 286.03 C 326.07 282.67, 323.09 281.81, 318.16 281.02 C 313.24 280.22, 310.48 280.91, 306.04 282.07 C 301.60 283.24, 299.33 284.45, 295.95 286.84 C 292.57 289.24, 290.95 291.11, 289.13 294.06 C 287.31 297.01, 287.13 299.10, 286.84 301.58 C 286.55 304.07, 287.15 305.49, 287.68 306.49 C 288.21 307.49, 288.85 307.40, 289.49 306.59 C 290.12 305.79, 290.15 304.50, 290.85 302.46 C 291.55 300.42, 291.53 298.92, 293.01 296.40 C 294.48 293.88, 295.44 292.11, 298.23 289.87 C 301.01 287.64, 303.03 286.44, 306.94 285.21 C 310.85 283.99, 313.29 283.22, 317.78 283.75 C 322.26 284.28, 325.00 284.88, 329.36 287.88 C 333.71 290.88, 336.16 292.85, 339.54 298.74 C 342.91 304.63, 344.39 308.46, 346.21 317.34 C 348.04 326.22, 348.55 331.82, 348.65 343.13 C 348.74 354.45, 348.39 361.24, 346.70 373.92 C 345.00 386.59, 343.55 393.89, 340.16 406.49 C 336.77 419.10, 334.46 425.94, 329.75 436.95 C 325.04 447.96, 322.02 453.40, 316.62 461.55 C 311.21 469.70, 308.01 473.25, 302.73 477.70 C 297.45 482.16, 294.94 483.33, 290.20 483.82 C 285.45 484.30, 283.24 483.62, 279.01 480.13 C 274.78 476.63, 272.40 473.75, 269.03 466.36 C 265.66 458.96, 264.10 453.74, 262.18 443.15 C 260.25 432.56, 259.68 425.82, 259.41 413.40 C 259.14 400.98, 259.36 393.75, 260.83 381.05 C 262.30 368.35, 263.70 361.35, 266.75 349.89 C 269.80 338.44, 272.10 332.62, 276.07 323.77 C 280.04 314.92, 282.46 311.28, 286.59 305.64 C 290.72 300.00, 292.97 298.15, 296.71 295.55 C 300.45 292.96, 302.29 292.94, 305.29 292.65 C 308.29 292.37, 309.36 293.38, 311.70 294.13 C 314.03 294.88, 315.09 295.83, 316.98 296.42 C 318.86 297.01, 320.07 297.35, 321.12 297.08 C 322.17 296.80, 322.59 296.11, 322.25 295.05" style="stroke: black; fill: black;"/><path d="M 361.20,368.16 C 360.44 368.83, 359.86 369.35, 359.32 371.82 C 358.79 374.29, 358.63 376.06, 358.54 380.50 C 358.44 384.95, 358.47 387.91, 358.86 394.03 C 359.24 400.16, 359.54 404.19, 360.47 411.12 C 361.41 418.05, 361.84 422.31, 363.52 428.69 C 365.20 435.07, 366.24 438.61, 368.86 443.04 C 371.49 447.46, 373.08 449.49, 376.64 450.80 C 380.21 452.12, 382.59 451.77, 386.69 449.61 C 390.80 447.44, 393.13 445.07, 397.16 439.97 C 401.18 434.88, 403.32 430.90, 406.83 424.12 C 410.35 417.33, 412.08 412.65, 414.73 406.06 C 417.39 399.47, 418.60 395.59, 420.12 391.15 C 421.64 386.71, 422.01 384.86, 422.34 383.86 C 422.67 382.86, 421.64 383.40, 421.77 386.14 C 421.91 388.88, 422.31 391.89, 422.99 397.55 C 423.67 403.21, 423.99 407.39, 425.17 414.44 C 426.36 421.48, 427.15 426.01, 428.93 432.77 C 430.71 439.52, 431.57 443.46, 434.06 448.21 C 436.55 452.96, 437.99 455.10, 441.38 456.52 C 444.76 457.94, 447.22 457.65, 450.97 455.30 C 454.72 452.96, 456.56 450.43, 460.14 444.80 C 463.71 439.16, 465.50 434.70, 468.85 427.13 C 472.19 419.56, 474.08 414.03, 476.84 406.93 C 479.60 399.84, 481.00 395.65, 482.63 391.67 C 484.26 387.69, 484.28 386.59, 484.98 387.05 C 485.69 387.51, 485.69 389.20, 486.17 393.98 C 486.66 398.75, 486.78 403.58, 487.39 410.90 C 488.00 418.23, 488.50 423.52, 489.21 430.60 C 489.93 437.68, 490.07 441.59, 490.97 446.30 C 491.86 451.01, 492.33 453.08, 493.69 454.16 C 495.04 455.24, 496.57 454.56, 497.76 451.69 C 498.95 448.81, 498.77 445.70, 499.65 439.76 C 500.52 433.82, 500.92 429.26, 502.13 421.98 C 503.34 414.69, 503.94 410.13, 505.70 403.35 C 507.45 396.57, 508.54 393.16, 510.90 388.05 C 513.26 382.95, 514.65 380.79, 517.51 377.80 C 520.37 374.82, 521.67 374.33, 525.19 373.14 C 528.71 371.95, 530.68 372.06, 535.12 371.84 C 539.56 371.63, 542.11 371.80, 547.37 372.05 C 552.63 372.31, 555.72 372.86, 561.41 373.12 C 567.10 373.38, 570.57 373.78, 575.82 373.37 C 581.07 372.95, 583.67 372.38, 587.66 371.04 C 591.65 369.71, 593.36 368.63, 595.75 366.70 C 598.14 364.76, 598.78 363.35, 599.61 361.38 C 600.45 359.41, 600.22 357.85, 599.93 356.85 C 599.64 355.86, 598.85 355.85, 598.17 356.41 C 597.48 356.97, 597.55 358.28, 596.52 359.65 C 595.49 361.02, 595.01 361.66, 593.00 363.27 C 590.98 364.87, 589.93 366.29, 586.44 367.68 C 582.95 369.06, 580.52 369.72, 575.54 370.19 C 570.56 370.66, 567.16 370.30, 561.55 370.03 C 555.95 369.77, 552.86 369.16, 547.54 368.87 C 542.22 368.57, 539.63 368.31, 534.95 368.57 C 530.27 368.83, 528.03 368.71, 524.13 370.17 C 520.23 371.63, 518.55 372.49, 515.43 375.85 C 512.32 379.22, 511.00 381.62, 508.57 386.99 C 506.14 392.36, 505.14 395.82, 503.29 402.72 C 501.44 409.62, 500.70 414.17, 499.34 421.48 C 497.97 428.79, 497.42 433.39, 496.44 439.26 C 495.46 445.13, 494.74 448.00, 494.44 450.81 C 494.13 453.62, 495.01 454.30, 494.92 453.30 C 494.83 452.30, 494.56 450.42, 493.99 445.82 C 493.42 441.22, 492.79 437.34, 492.05 430.31 C 491.31 423.28, 490.91 418.01, 490.31 410.66 C 489.71 403.31, 490.00 398.53, 489.04 393.55 C 488.08 388.58, 487.30 386.41, 485.52 385.80 C 483.75 385.19, 482.38 386.45, 480.18 390.49 C 477.97 394.54, 477.20 398.90, 474.49 406.03 C 471.77 413.16, 469.92 418.67, 466.60 426.14 C 463.29 433.61, 461.34 438.01, 457.90 443.36 C 454.45 448.71, 452.47 450.79, 449.40 452.88 C 446.33 454.98, 445.12 455.03, 442.55 453.84 C 439.98 452.65, 438.74 451.28, 436.53 446.94 C 434.32 442.59, 433.19 438.69, 431.50 432.10 C 429.81 425.51, 429.11 420.96, 428.07 413.98 C 427.03 406.99, 426.88 402.89, 426.31 397.18 C 425.74 391.47, 426.23 388.33, 425.21 385.43 C 424.18 382.54, 422.76 381.78, 421.18 382.72 C 419.60 383.66, 419.08 385.64, 417.31 390.11 C 415.54 394.59, 414.88 398.55, 412.34 405.11 C 409.79 411.68, 408.04 416.31, 404.57 422.94 C 401.11 429.57, 398.86 433.44, 395.00 438.26 C 391.14 443.07, 388.75 445.07, 385.28 447.02 C 381.82 448.97, 380.49 449.10, 377.69 448.01 C 374.90 446.93, 373.63 445.60, 371.31 441.60 C 368.99 437.60, 367.72 434.18, 366.09 428.01 C 364.47 421.85, 363.97 417.60, 363.17 410.78 C 362.36 403.96, 362.16 399.92, 362.06 393.90 C 361.97 387.89, 362.32 385.03, 362.69 380.72 C 363.07 376.42, 363.84 374.86, 363.94 372.40 C 364.03 369.94, 363.70 369.29, 363.15 368.44 C 362.61 367.59, 361.97 367.48, 361.20 368.16" style="stroke: black; fill: black;"/><path d="M 766.01,370.70 C 765.93 369.58, 765.53 368.33, 763.95 366.75 C 762.38 365.16, 761.10 363.75, 758.11 362.78 C 755.13 361.82, 752.89 361.60, 749.03 361.92 C 745.18 362.23, 742.81 362.66, 738.83 364.35 C 734.86 366.05, 732.39 367.18, 729.14 370.40 C 725.90 373.61, 724.19 376.07, 722.60 380.42 C 721.01 384.76, 720.52 387.26, 721.19 392.14 C 721.87 397.02, 723.11 399.82, 725.96 404.82 C 728.81 409.82, 731.16 412.33, 735.46 417.15 C 739.76 421.97, 742.71 424.39, 747.47 428.91 C 752.24 433.43, 755.09 435.76, 759.29 439.75 C 763.49 443.75, 765.80 445.66, 768.49 448.89 C 771.19 452.12, 772.13 453.59, 772.77 455.91 C 773.41 458.24, 773.20 458.66, 771.68 460.51 C 770.16 462.36, 768.82 463.35, 765.17 465.16 C 761.52 466.96, 758.56 468.00, 753.43 469.55 C 748.29 471.10, 744.84 471.96, 739.49 472.90 C 734.15 473.84, 730.95 474.22, 726.71 474.25 C 722.46 474.28, 720.37 473.88, 718.26 473.05 C 716.15 472.23, 715.89 472.16, 716.16 470.11 C 716.43 468.07, 717.00 466.48, 719.61 462.82 C 722.21 459.15, 724.32 456.75, 729.19 451.81 C 734.06 446.87, 737.37 444.06, 743.95 438.11 C 750.52 432.16, 754.59 428.94, 762.07 422.05 C 769.54 415.16, 773.73 411.39, 781.33 403.65 C 788.93 395.92, 792.91 391.74, 800.06 383.38 C 807.21 375.02, 810.84 370.38, 817.08 361.85 C 823.33 353.32, 826.32 348.66, 831.26 340.73 C 836.21 332.80, 838.35 328.79, 841.79 322.21 C 845.23 315.62, 846.59 312.39, 848.46 307.81 C 850.32 303.23, 850.96 300.99, 851.10 299.31 C 851.24 297.63, 849.83 297.23, 849.15 299.42 C 848.48 301.62, 848.39 303.95, 847.73 310.30 C 847.07 316.65, 846.62 321.30, 845.85 331.17 C 845.07 341.03, 844.55 347.45, 843.85 359.61 C 843.14 371.78, 842.82 379.16, 842.33 391.98 C 841.83 404.80, 841.58 411.99, 841.37 423.71 C 841.15 435.43, 841.20 441.70, 841.25 450.59 C 841.29 459.47, 841.29 463.59, 841.60 468.14 C 841.90 472.68, 842.43 473.64, 842.78 473.31 C 843.13 472.98, 843.60 470.85, 843.35 466.47 C 843.10 462.10, 842.72 457.92, 841.52 451.42 C 840.33 444.92, 839.22 440.38, 837.39 433.98 C 835.57 427.57, 834.46 424.16, 832.41 419.40 C 830.37 414.64, 829.30 412.62, 827.18 410.16 C 825.06 407.69, 823.34 407.20, 821.80 407.08 C 820.26 406.95, 819.35 408.05, 819.47 409.53 C 819.59 411.00, 819.89 412.95, 822.42 414.45 C 824.95 415.95, 827.27 416.48, 832.11 417.03 C 836.96 417.58, 840.27 417.72, 846.64 417.19 C 853.01 416.66, 856.70 415.94, 863.95 414.37 C 871.21 412.79, 875.52 411.61, 882.90 409.32 C 890.29 407.03, 894.53 405.18, 900.90 402.91 C 907.27 400.65, 910.69 399.42, 914.76 398.00 C 918.83 396.58, 920.30 395.73, 921.26 395.82 C 922.23 395.91, 921.28 395.86, 919.59 398.47 C 917.89 401.09, 916.06 403.56, 912.78 408.90 C 909.51 414.23, 906.68 418.18, 903.21 425.14 C 899.74 432.09, 897.54 436.56, 895.42 443.67 C 893.30 450.77, 892.54 454.79, 892.62 460.65 C 892.69 466.52, 893.25 469.44, 895.79 472.98 C 898.33 476.52, 900.77 477.93, 905.31 478.37 C 909.84 478.81, 913.11 477.86, 918.45 475.19 C 923.79 472.53, 926.98 470.01, 932.00 465.05 C 937.03 460.09, 939.93 456.80, 943.58 450.40 C 947.24 444.01, 948.97 440.03, 950.28 433.07 C 951.58 426.12, 951.45 422.06, 950.11 415.62 C 948.78 409.19, 946.99 405.93, 943.60 400.88 C 940.21 395.84, 937.45 393.62, 933.16 390.40 C 928.86 387.17, 925.93 386.06, 922.13 384.77 C 918.33 383.48, 916.02 383.55, 914.14 383.94 C 912.27 384.34, 911.88 385.76, 912.75 386.74 C 913.61 387.73, 914.96 388.62, 918.46 388.87 C 921.95 389.13, 924.53 388.60, 930.21 388.02 C 935.90 387.43, 939.83 386.85, 946.88 385.94 C 953.93 385.03, 958.06 384.27, 965.48 383.47 C 972.89 382.67, 977.15 381.89, 983.94 381.92 C 990.74 381.96, 994.41 381.94, 999.46 383.65 C 1004.50 385.36, 1006.47 386.45, 1009.16 390.46 C 1011.85 394.47, 1012.40 397.21, 1012.92 403.68 C 1013.43 410.16, 1012.87 414.63, 1011.72 422.83 C 1010.57 431.04, 1009.00 436.59, 1007.17 444.70 C 1005.35 452.82, 1003.91 457.60, 1002.59 463.39 C 1001.27 469.18, 1000.43 471.77, 1000.59 473.66 C 1000.75 475.56, 1002.27 475.35, 1003.40 472.86 C 1004.54 470.38, 1004.68 467.26, 1006.25 461.22 C 1007.83 455.19, 1009.07 450.39, 1011.28 442.68 C 1013.50 434.97, 1014.85 430.05, 1017.32 422.67 C 1019.79 415.30, 1021.09 411.25, 1023.63 405.83 C 1026.17 400.40, 1027.64 398.29, 1030.00 395.53 C 1032.36 392.78, 1033.27 392.41, 1035.45 392.07 C 1037.62 391.72, 1038.26 392.67, 1040.88 393.82 C 1043.50 394.98, 1045.06 396.40, 1048.55 397.84 C 1052.04 399.27, 1054.26 400.26, 1058.32 400.99 C 1062.39 401.71, 1064.74 401.94, 1068.88 401.46 C 1073.01 400.99, 1075.27 400.37, 1078.98 398.62 C 1082.70 396.87, 1084.69 395.29, 1087.47 392.70 C 1090.25 390.12, 1091.91 388.21, 1092.88 385.68 C 1093.86 383.16, 1093.48 380.94, 1092.35 380.08 C 1091.22 379.22, 1089.42 378.91, 1087.24 381.40 C 1085.06 383.89, 1083.93 386.87, 1081.45 392.54 C 1078.97 398.22, 1077.16 402.37, 1074.84 409.77 C 1072.51 417.16, 1070.92 422.15, 1069.83 429.54 C 1068.74 436.92, 1068.41 441.04, 1069.40 446.69 C 1070.38 452.34, 1071.64 455.01, 1074.75 457.79 C 1077.87 460.58, 1080.36 461.27, 1084.98 460.63 C 1089.59 459.98, 1092.39 458.32, 1097.83 454.57 C 1103.27 450.81, 1106.46 447.75, 1112.18 441.86 C 1117.90 435.96, 1121.29 431.53, 1126.44 425.07 C 1131.59 418.62, 1134.24 414.53, 1137.92 409.60 C 1141.60 404.67, 1143.37 402.56, 1144.83 400.41 C 1146.29 398.25, 1145.50 397.47, 1145.22 398.84 C 1144.94 400.21, 1144.26 402.09, 1143.44 407.26 C 1142.62 412.42, 1141.94 416.33, 1141.10 424.67 C 1140.27 433.00, 1139.81 438.19, 1139.27 448.94 C 1138.74 459.69, 1138.59 466.01, 1138.42 478.40 C 1138.26 490.79, 1138.53 497.76, 1138.44 510.87 C 1138.34 523.99, 1138.56 531.23, 1137.97 543.96 C 1137.37 556.69, 1137.09 563.32, 1135.47 574.53 C 1133.85 585.73, 1132.85 591.14, 1129.86 599.99 C 1126.87 608.84, 1124.89 612.86, 1120.52 618.80 C 1116.15 624.74, 1113.44 626.93, 1108.01 629.70 C 1102.58 632.46, 1099.36 632.80, 1093.37 632.61 C 1087.38 632.43, 1083.81 631.36, 1078.07 628.77 C 1072.33 626.19, 1069.16 624.07, 1064.66 619.69 C 1060.17 615.32, 1057.91 612.51, 1055.61 606.90 C 1053.30 601.29, 1052.50 598.18, 1053.12 591.66 C 1053.75 585.13, 1054.47 581.91, 1058.75 574.27 C 1063.02 566.63, 1067.59 561.69, 1074.49 553.46 C 1081.38 545.23, 1086.33 540.22, 1093.23 533.11 C 1100.12 526.01, 1106.02 521.18, 1108.95 517.92 C 1111.89 514.66, 1111.27 514.01, 1107.89 516.82 C 1104.51 519.63, 1099.00 524.87, 1092.05 531.97 C 1085.10 539.07, 1080.12 544.05, 1073.14 552.33 C 1066.16 560.61, 1061.55 565.54, 1057.13 573.36 C 1052.71 581.19, 1051.80 584.57, 1051.06 591.45 C 1050.33 598.33, 1051.07 601.78, 1053.45 607.77 C 1055.84 613.77, 1058.25 616.78, 1062.98 621.42 C 1067.70 626.06, 1071.03 628.26, 1077.10 630.95 C 1083.17 633.63, 1086.95 634.75, 1093.32 634.85 C 1099.68 634.96, 1103.21 634.49, 1108.93 631.49 C 1114.66 628.48, 1117.46 626.03, 1121.94 619.83 C 1126.41 613.63, 1128.32 609.49, 1131.29 600.47 C 1134.27 591.45, 1135.22 586.01, 1136.81 574.72 C 1138.40 563.43, 1138.66 556.78, 1139.24 544.02 C 1139.83 531.25, 1139.61 524.00, 1139.73 510.88 C 1139.85 497.77, 1139.59 490.79, 1139.84 478.42 C 1140.09 466.05, 1140.27 459.74, 1140.99 449.04 C 1141.71 438.34, 1142.36 433.20, 1143.44 424.94 C 1144.52 416.67, 1145.67 412.97, 1146.40 407.70 C 1147.13 402.42, 1147.84 400.42, 1147.09 398.56 C 1146.34 396.70, 1144.90 396.50, 1142.64 398.40 C 1140.39 400.30, 1139.40 403.01, 1135.81 408.06 C 1132.21 413.11, 1129.72 417.23, 1124.66 423.66 C 1119.60 430.09, 1116.16 434.47, 1110.51 440.22 C 1104.85 445.98, 1101.57 448.91, 1096.38 452.44 C 1091.19 455.97, 1088.52 457.22, 1084.56 457.89 C 1080.60 458.56, 1079.11 458.10, 1076.58 455.78 C 1074.05 453.45, 1072.78 451.44, 1071.91 446.26 C 1071.05 441.09, 1071.16 437.03, 1072.27 429.90 C 1073.37 422.77, 1074.99 417.80, 1077.43 410.61 C 1079.87 403.42, 1081.81 399.30, 1084.45 393.94 C 1087.09 388.57, 1089.19 386.43, 1090.63 383.80 C 1092.08 381.16, 1092.04 380.87, 1091.66 380.76 C 1091.28 380.66, 1090.24 381.57, 1088.76 383.29 C 1087.27 385.01, 1086.56 387.04, 1084.25 389.37 C 1081.93 391.70, 1080.35 393.33, 1077.19 394.94 C 1074.02 396.56, 1072.05 397.08, 1068.44 397.44 C 1064.83 397.80, 1062.77 397.51, 1059.14 396.75 C 1055.51 395.99, 1053.64 395.02, 1050.29 393.63 C 1046.94 392.24, 1045.49 390.77, 1042.38 389.79 C 1039.27 388.82, 1037.65 387.99, 1034.73 388.76 C 1031.80 389.52, 1030.41 390.42, 1027.74 393.63 C 1025.07 396.83, 1023.90 399.14, 1021.37 404.80 C 1018.84 410.45, 1017.64 414.50, 1015.10 421.92 C 1012.56 429.35, 1011.05 434.21, 1008.69 441.91 C 1006.34 449.62, 1004.96 454.40, 1003.32 460.44 C 1001.69 466.49, 1000.68 469.41, 1000.51 472.14 C 1000.33 474.86, 1001.52 475.70, 1002.45 474.07 C 1003.39 472.44, 1003.80 469.77, 1005.18 464.00 C 1006.57 458.22, 1007.64 453.36, 1009.38 445.19 C 1011.13 437.02, 1012.74 431.48, 1013.90 423.14 C 1015.07 414.80, 1015.75 410.30, 1015.20 403.50 C 1014.65 396.69, 1014.14 393.55, 1011.15 389.12 C 1008.15 384.69, 1005.68 383.28, 1000.24 381.37 C 994.81 379.46, 990.96 379.63, 983.96 379.58 C 976.96 379.52, 972.71 380.37, 965.23 381.11 C 957.76 381.84, 953.63 382.57, 946.58 383.23 C 939.52 383.90, 935.56 384.20, 929.96 384.42 C 924.35 384.64, 921.89 384.18, 918.54 384.32 C 915.18 384.46, 914.10 384.59, 913.18 385.10 C 912.26 385.61, 912.37 386.21, 913.92 386.87 C 915.46 387.53, 917.39 387.22, 920.90 388.40 C 924.41 389.58, 927.33 389.99, 931.46 392.78 C 935.58 395.56, 938.24 397.64, 941.52 402.31 C 944.80 406.97, 946.53 410.04, 947.84 416.10 C 949.14 422.17, 949.31 426.03, 948.05 432.65 C 946.79 439.28, 945.12 443.12, 941.55 449.23 C 937.98 455.34, 935.08 458.51, 930.21 463.21 C 925.34 467.90, 922.13 470.23, 917.20 472.69 C 912.27 475.15, 909.38 475.77, 905.54 475.52 C 901.71 475.26, 900.10 474.38, 898.01 471.40 C 895.93 468.43, 895.19 466.03, 895.13 460.63 C 895.08 455.22, 895.65 451.22, 897.75 444.37 C 899.84 437.51, 902.07 433.12, 905.60 426.36 C 909.13 419.59, 912.00 415.81, 915.39 410.54 C 918.79 405.27, 921.28 403.26, 922.58 400.00 C 923.88 396.73, 923.64 395.17, 921.90 394.20 C 920.15 393.23, 918.22 393.88, 913.85 395.15 C 909.48 396.43, 906.37 398.18, 900.04 400.58 C 893.72 402.97, 889.54 404.86, 882.22 407.13 C 874.91 409.41, 870.61 410.56, 863.46 411.97 C 856.30 413.38, 852.60 414.01, 846.47 414.20 C 840.33 414.38, 837.11 413.83, 832.77 412.91 C 828.44 411.99, 827.10 410.49, 824.80 409.61 C 822.50 408.73, 822.03 408.61, 821.25 408.51 C 820.47 408.40, 820.32 408.27, 820.90 409.09 C 821.48 409.91, 822.41 410.30, 824.16 412.61 C 825.90 414.92, 827.56 416.21, 829.63 420.65 C 831.70 425.08, 832.77 428.52, 834.52 434.79 C 836.26 441.06, 837.19 445.58, 838.35 452.00 C 839.50 458.41, 839.44 462.56, 840.27 466.86 C 841.10 471.15, 841.79 473.24, 842.50 473.48 C 843.20 473.73, 843.71 472.67, 843.80 468.09 C 843.89 463.50, 843.16 459.43, 842.96 450.56 C 842.75 441.69, 842.64 435.44, 842.79 423.73 C 842.94 412.03, 843.18 404.84, 843.71 392.04 C 844.23 379.23, 844.56 371.85, 845.41 359.71 C 846.25 347.58, 846.90 341.18, 847.91 331.36 C 848.93 321.54, 849.68 316.95, 850.48 310.62 C 851.29 304.28, 852.19 302.10, 851.94 299.68 C 851.70 297.26, 850.43 297.08, 849.24 298.51 C 848.04 299.93, 847.80 302.24, 845.96 306.80 C 844.12 311.36, 843.25 314.71, 840.03 321.32 C 836.81 327.93, 834.69 331.94, 829.86 339.86 C 825.02 347.79, 822.04 352.45, 815.86 360.96 C 809.68 369.47, 806.06 374.09, 798.93 382.42 C 791.81 390.74, 787.84 394.89, 780.23 402.57 C 772.63 410.24, 768.44 413.99, 760.91 420.79 C 753.38 427.59, 749.30 430.75, 742.59 436.58 C 735.88 442.40, 732.48 445.07, 727.35 449.93 C 722.22 454.79, 719.86 456.89, 716.94 460.89 C 714.02 464.88, 712.79 466.80, 712.73 469.90 C 712.67 472.99, 713.85 474.78, 716.65 476.35 C 719.45 477.92, 722.05 477.79, 726.74 477.75 C 731.42 477.71, 734.53 477.12, 740.07 476.15 C 745.60 475.18, 749.05 474.41, 754.41 472.89 C 759.76 471.36, 762.77 470.54, 766.84 468.53 C 770.91 466.52, 772.89 465.53, 774.78 462.83 C 776.67 460.13, 777.06 458.21, 776.29 455.01 C 775.51 451.81, 773.92 450.28, 770.90 446.83 C 767.88 443.37, 765.51 441.69, 761.18 437.73 C 756.85 433.76, 754.01 431.48, 749.27 427.00 C 744.53 422.53, 741.64 420.08, 737.48 415.36 C 733.32 410.64, 731.11 408.13, 728.48 403.40 C 725.86 398.67, 724.87 396.08, 724.35 391.73 C 723.83 387.38, 724.38 385.38, 725.87 381.66 C 727.35 377.95, 728.89 375.84, 731.79 373.17 C 734.70 370.49, 736.90 369.54, 740.39 368.30 C 743.87 367.06, 746.05 366.90, 749.22 366.96 C 752.38 367.02, 753.86 367.85, 756.22 368.61 C 758.58 369.38, 759.39 370.05, 761.02 370.79 C 762.65 371.53, 763.36 372.34, 764.36 372.32 C 765.36 372.30, 766.09 371.81, 766.01 370.70" style="stroke: black; fill: black;"/></svg>