<svg xmlns="http://www.w3.org/2000/svg" id="canvas" viewBox="215.976 278.720 971.380 155.846"><path d="M 225.90,323.71 C 225.28 324.39, 224.64 324.97, 223.88 327.50 C 223.12 330.02, 222.76 331.75, 222.10 336.32 C 221.44 340.89, 221.10 343.89, 220.56 350.35 C 220.01 356.81, 219.67 360.93, 219.37 368.61 C 219.06 376.28, 218.87 380.93, 219.04 388.74 C 219.21 396.54, 219.44 400.96, 220.21 407.63 C 220.98 414.31, 221.39 417.60, 222.90 422.12 C 224.41 426.64, 225.36 428.56, 227.75 430.24 C 230.14 431.93, 232.07 431.98, 234.86 430.53 C 237.65 429.07, 239.00 427.30, 241.71 422.97 C 244.42 418.65, 245.80 415.56, 248.42 408.91 C 251.04 402.26, 252.30 397.94, 254.81 389.71 C 257.32 381.48, 258.67 376.42, 260.98 367.75 C 263.28 359.08, 264.40 354.26, 266.32 346.35 C 268.24 338.44, 269.22 334.19, 270.60 328.20 C 271.97 322.22, 272.81 319.35, 273.19 316.41 C 273.57 313.48, 272.98 312.77, 272.49 313.53 C 272.01 314.29, 271.43 315.88, 270.78 320.23 C 270.12 324.58, 269.77 328.13, 269.22 335.28 C 268.68 342.43, 268.40 347.42, 268.06 355.98 C 267.71 364.54, 267.51 369.67, 267.49 378.06 C 267.47 386.46, 267.52 390.97, 267.95 397.94 C 268.38 404.91, 268.64 408.23, 269.64 412.92 C 270.65 417.61, 271.26 419.39, 272.98 421.38 C 274.71 423.36, 276.04 423.63, 278.27 422.84 C 280.51 422.04, 281.81 420.63, 284.16 417.38 C 286.51 414.14, 287.73 411.52, 290.04 406.62 C 292.36 401.71, 293.58 398.36, 295.72 392.84 C 297.87 387.32, 298.97 383.87, 300.75 379.01 C 302.53 374.15, 303.58 371.57, 304.61 368.54 C 305.64 365.50, 305.76 364.33, 305.92 363.85 C 306.07 363.36, 305.55 363.99, 305.40 366.11 C 305.24 368.23, 305.22 370.38, 305.15 374.46 C 305.07 378.53, 305.01 381.61, 305.01 386.49 C 305.02 391.37, 304.96 394.45, 305.17 398.85 C 305.38 403.26, 305.26 405.70, 306.06 408.50 C 306.86 411.31, 307.66 412.42, 309.17 412.88 C 310.68 413.33, 311.80 412.92, 313.61 410.78 C 315.42 408.63, 316.21 406.36, 318.21 402.15 C 320.22 397.94, 321.46 394.72, 323.64 389.75 C 325.83 384.78, 327.06 381.70, 329.15 377.29 C 331.23 372.87, 332.58 370.42, 334.08 367.67 C 335.58 364.92, 335.98 363.84, 336.65 363.53 C 337.31 363.23, 337.10 363.91, 337.41 366.14 C 337.71 368.36, 337.93 370.47, 338.16 374.66 C 338.40 378.86, 338.38 382.00, 338.59 387.12 C 338.81 392.23, 338.77 395.50, 339.24 400.24 C 339.71 404.98, 339.85 407.58, 340.94 410.82 C 342.03 414.06, 342.78 415.33, 344.68 416.44 C 346.58 417.55, 347.95 417.74, 350.44 416.37 C 352.93 415.00, 354.34 413.34, 357.14 409.60 C 359.94 405.86, 361.45 403.09, 364.45 397.68 C 367.44 392.28, 369.06 388.66, 372.12 382.57 C 375.18 376.49, 376.92 372.77, 379.76 367.25 C 382.60 361.74, 384.06 358.80, 386.32 355.00 C 388.59 351.20, 389.64 349.81, 391.07 348.24 C 392.50 346.67, 392.79 346.50, 393.47 347.16 C 394.16 347.82, 394.00 348.93, 394.49 351.53 C 394.99 354.14, 395.39 356.18, 395.95 360.18 C 396.50 364.18, 396.88 366.76, 397.28 371.54 C 397.68 376.33, 397.82 379.18, 397.95 384.12 C 398.08 389.05, 398.09 391.85, 397.92 396.22 C 397.74 400.59, 397.56 402.76, 397.08 405.97 C 396.59 409.19, 396.13 410.49, 395.48 412.30 C 394.83 414.10, 394.48 414.64, 393.83 414.99 C 393.18 415.33, 392.84 414.96, 392.23 414.02 C 391.62 413.07, 391.25 412.14, 390.80 410.26 C 390.34 408.39, 390.05 406.97, 389.98 404.63 C 389.91 402.30, 389.90 400.67, 390.44 398.59 C 390.97 396.52, 391.41 395.55, 392.65 394.25 C 393.88 392.96, 394.62 392.56, 396.61 392.11 C 398.59 391.65, 399.84 391.94, 402.56 391.98 C 405.28 392.01, 406.93 392.22, 410.19 392.28 C 413.45 392.35, 415.34 392.61, 418.85 392.31 C 422.36 392.01, 424.32 391.85, 427.75 390.80 C 431.18 389.75, 433.03 388.97, 436.00 387.07 C 438.96 385.17, 440.37 383.85, 442.58 381.30 C 444.79 378.75, 445.86 377.11, 447.04 374.31 C 448.21 371.52, 448.44 369.97, 448.47 367.33 C 448.49 364.69, 448.13 363.16, 447.16 361.10 C 446.18 359.05, 445.34 358.02, 443.58 357.06 C 441.82 356.11, 440.47 355.87, 438.36 356.32 C 436.24 356.77, 434.94 357.27, 433.00 359.31 C 431.06 361.35, 430.06 362.96, 428.64 366.52 C 427.22 370.08, 426.55 372.53, 425.88 377.09 C 425.21 381.66, 425.01 384.57, 425.29 389.33 C 425.58 394.09, 425.92 396.73, 427.31 400.89 C 428.69 405.05, 429.76 407.29, 432.21 410.14 C 434.65 412.99, 436.31 414.23, 439.54 415.15 C 442.77 416.07, 444.75 415.86, 448.34 414.76 C 451.94 413.66, 453.94 412.45, 457.52 409.63 C 461.10 406.81, 463.01 404.62, 466.24 400.67 C 469.47 396.72, 471.02 394.13, 473.67 389.90 C 476.31 385.67, 477.56 383.17, 479.45 379.53 C 481.34 375.89, 482.26 373.91, 483.10 371.70 C 483.95 369.48, 483.81 368.60, 483.68 368.46 C 483.54 368.31, 482.95 368.94, 482.41 370.97 C 481.88 373.00, 481.49 374.94, 480.99 378.60 C 480.49 382.25, 480.21 384.95, 479.91 389.25 C 479.61 393.55, 479.49 396.28, 479.48 400.08 C 479.46 403.89, 479.39 405.93, 479.83 408.26 C 480.26 410.59, 480.76 411.37, 481.65 411.73 C 482.54 412.09, 483.28 411.63, 484.28 410.05 C 485.27 408.48, 485.82 406.85, 486.61 403.87 C 487.41 400.89, 487.58 398.56, 488.27 395.16 C 488.96 391.76, 489.47 389.71, 490.05 386.87 C 490.63 384.04, 490.80 382.57, 491.17 380.97 C 491.54 379.38, 491.48 378.99, 491.88 378.89 C 492.29 378.80, 492.29 379.46, 493.18 380.51 C 494.07 381.55, 494.59 382.71, 496.35 384.11 C 498.11 385.51, 499.33 386.55, 501.97 387.49 C 504.61 388.43, 506.39 388.89, 509.55 388.82 C 512.71 388.75, 514.54 388.38, 517.78 387.14 C 521.03 385.90, 522.75 384.85, 525.78 382.61 C 528.81 380.36, 530.46 378.77, 532.93 375.91 C 535.40 373.04, 536.68 371.20, 538.12 368.30 C 539.55 365.39, 540.08 363.69, 540.13 361.38 C 540.18 359.06, 539.70 357.83, 538.36 356.71 C 537.02 355.59, 535.67 355.26, 533.41 355.76 C 531.15 356.26, 529.40 357.04, 527.06 359.20 C 524.71 361.36, 523.56 363.14, 521.68 366.56 C 519.80 369.98, 518.76 372.15, 517.66 376.32 C 516.56 380.49, 516.16 383.02, 516.20 387.40 C 516.24 391.78, 516.52 394.35, 517.85 398.21 C 519.18 402.08, 520.19 404.03, 522.85 406.72 C 525.50 409.42, 527.26 410.67, 531.11 411.69 C 534.96 412.72, 537.89 412.38, 542.11 411.85 C 546.33 411.32, 548.77 410.34, 552.20 409.04 C 555.63 407.75, 557.97 406.35, 559.28 405.38 C 560.59 404.41, 560.33 403.91, 558.76 404.20 C 557.20 404.50, 554.83 405.79, 551.44 406.86 C 548.05 407.93, 545.77 409.02, 541.81 409.56 C 537.85 410.10, 535.14 410.45, 531.66 409.58 C 528.17 408.71, 526.74 407.63, 524.39 405.21 C 522.04 402.80, 521.11 401.08, 519.91 397.51 C 518.71 393.95, 518.39 391.50, 518.39 387.39 C 518.39 383.27, 518.77 380.83, 519.90 376.94 C 521.02 373.04, 522.14 370.98, 524.02 367.91 C 525.89 364.84, 527.24 363.51, 529.27 361.58 C 531.31 359.65, 532.60 358.97, 534.20 358.26 C 535.79 357.55, 536.56 357.45, 537.27 358.03 C 537.97 358.60, 538.06 359.35, 537.72 361.15 C 537.37 362.94, 536.91 364.39, 535.55 367.00 C 534.20 369.61, 533.21 371.51, 530.94 374.22 C 528.68 376.92, 527.07 378.46, 524.24 380.53 C 521.42 382.59, 519.77 383.51, 516.83 384.54 C 513.89 385.57, 512.27 385.74, 509.55 385.66 C 506.83 385.58, 505.45 385.04, 503.23 384.15 C 501.02 383.26, 500.17 382.33, 498.47 381.20 C 496.76 380.08, 496.09 379.23, 494.71 378.52 C 493.33 377.81, 492.72 377.36, 491.57 377.67 C 490.41 377.98, 489.91 378.40, 488.96 380.08 C 488.00 381.77, 487.61 383.22, 486.81 386.09 C 486.01 388.97, 485.72 391.06, 484.96 394.45 C 484.20 397.84, 483.57 400.08, 483.00 403.04 C 482.44 406.00, 482.32 407.62, 482.12 409.25 C 481.93 410.89, 481.98 411.44, 482.03 411.20 C 482.07 410.95, 482.32 410.25, 482.35 408.03 C 482.38 405.82, 482.11 403.82, 482.16 400.11 C 482.22 396.40, 482.24 393.69, 482.62 389.47 C 483.00 385.25, 483.60 382.64, 484.05 379.00 C 484.50 375.35, 484.96 373.42, 484.88 371.24 C 484.80 369.06, 484.44 368.21, 483.66 368.09 C 482.88 367.98, 482.22 368.59, 480.98 370.67 C 479.75 372.76, 479.26 374.88, 477.46 378.52 C 475.67 382.16, 474.55 384.70, 472.00 388.88 C 469.45 393.05, 467.87 395.60, 464.71 399.42 C 461.56 403.24, 459.63 405.33, 456.22 407.97 C 452.82 410.61, 450.90 411.63, 447.68 412.63 C 444.47 413.63, 442.92 413.75, 440.16 412.97 C 437.40 412.19, 436.04 411.27, 433.86 408.72 C 431.69 406.18, 430.58 404.14, 429.28 400.24 C 427.98 396.34, 427.61 393.78, 427.38 389.22 C 427.16 384.66, 427.41 381.79, 428.16 377.46 C 428.91 373.13, 429.72 370.78, 431.14 367.57 C 432.56 364.36, 433.68 363.15, 435.25 361.39 C 436.82 359.64, 437.55 359.23, 438.98 358.78 C 440.40 358.34, 441.23 358.51, 442.38 359.19 C 443.52 359.87, 444.05 360.57, 444.70 362.19 C 445.35 363.81, 445.70 365.08, 445.63 367.27 C 445.55 369.47, 445.36 370.73, 444.34 373.18 C 443.32 375.64, 442.47 377.21, 440.52 379.55 C 438.57 381.89, 437.30 383.14, 434.59 384.90 C 431.89 386.65, 430.19 387.37, 427.01 388.31 C 423.82 389.25, 421.99 389.39, 418.65 389.59 C 415.31 389.79, 413.52 389.48, 410.30 389.30 C 407.08 389.12, 405.45 388.68, 402.57 388.70 C 399.68 388.73, 398.24 388.69, 395.88 389.42 C 393.51 390.14, 392.46 390.70, 390.74 392.34 C 389.03 393.97, 388.22 395.12, 387.30 397.59 C 386.38 400.07, 386.10 401.97, 386.15 404.72 C 386.19 407.47, 386.62 409.18, 387.52 411.36 C 388.42 413.54, 389.29 414.60, 390.66 415.61 C 392.04 416.61, 393.02 416.88, 394.40 416.40 C 395.78 415.92, 396.56 415.22, 397.57 413.21 C 398.58 411.19, 398.97 409.70, 399.45 406.32 C 399.93 402.94, 399.88 400.73, 399.97 396.28 C 400.06 391.83, 400.03 389.05, 399.92 384.07 C 399.82 379.09, 399.72 376.23, 399.45 371.39 C 399.17 366.55, 398.98 363.97, 398.55 359.86 C 398.11 355.75, 398.15 353.57, 397.28 350.82 C 396.40 348.07, 395.67 346.88, 394.18 346.10 C 392.68 345.31, 391.68 345.30, 389.79 346.90 C 387.91 348.49, 387.04 350.15, 384.76 354.08 C 382.47 358.01, 381.18 360.99, 378.38 366.55 C 375.58 372.11, 373.84 375.82, 370.75 381.88 C 367.66 387.93, 365.97 391.53, 362.91 396.81 C 359.84 402.10, 358.16 404.78, 355.43 408.30 C 352.70 411.81, 351.22 413.06, 349.24 414.41 C 347.27 415.76, 346.78 415.90, 345.56 415.04 C 344.34 414.19, 344.00 413.14, 343.16 410.14 C 342.32 407.13, 341.83 404.65, 341.37 400.03 C 340.91 395.41, 340.99 392.14, 340.85 387.04 C 340.71 381.94, 340.94 378.81, 340.69 374.52 C 340.44 370.23, 340.46 367.98, 339.61 365.59 C 338.75 363.19, 337.93 362.35, 336.42 362.53 C 334.92 362.71, 333.91 363.69, 332.09 366.47 C 330.26 369.25, 329.36 371.93, 327.28 376.41 C 325.21 380.90, 323.96 383.95, 321.72 388.89 C 319.47 393.82, 318.08 397.01, 316.05 401.10 C 314.02 405.18, 312.88 407.15, 311.58 409.30 C 310.27 411.45, 310.13 412.12, 309.53 411.85 C 308.92 411.58, 308.95 410.57, 308.55 407.95 C 308.14 405.33, 307.72 403.03, 307.50 398.74 C 307.28 394.45, 307.38 391.35, 307.45 386.50 C 307.52 381.65, 307.82 378.60, 307.85 374.49 C 307.87 370.38, 308.02 368.19, 307.56 365.95 C 307.10 363.72, 306.54 362.95, 305.53 363.31 C 304.52 363.66, 303.82 364.71, 302.51 367.72 C 301.20 370.74, 300.67 373.49, 298.98 378.38 C 297.28 383.27, 296.19 386.71, 294.04 392.18 C 291.89 397.65, 290.56 400.96, 288.21 405.73 C 285.86 410.51, 284.41 412.96, 282.29 416.07 C 280.17 419.17, 279.20 420.42, 277.60 421.27 C 276.00 422.12, 275.57 422.06, 274.29 420.32 C 273.00 418.58, 272.18 417.08, 271.16 412.59 C 270.15 408.09, 269.71 404.76, 269.21 397.85 C 268.71 390.95, 268.64 386.43, 268.67 378.07 C 268.69 369.70, 268.91 364.57, 269.35 356.04 C 269.78 347.51, 270.17 342.53, 270.83 335.41 C 271.50 328.30, 272.21 324.82, 272.66 320.47 C 273.11 316.11, 273.31 314.50, 273.07 313.62 C 272.83 312.74, 272.24 313.22, 271.47 316.07 C 270.71 318.93, 270.49 321.90, 269.23 327.91 C 267.98 333.91, 267.08 338.18, 265.21 346.09 C 263.35 354.00, 262.23 358.81, 259.91 367.46 C 257.60 376.12, 256.22 381.17, 253.65 389.35 C 251.08 397.53, 249.75 401.83, 247.06 408.36 C 244.36 414.89, 242.82 417.92, 240.19 422.01 C 237.56 426.09, 236.18 427.43, 233.90 428.79 C 231.62 430.15, 230.69 430.24, 228.79 428.81 C 226.89 427.37, 225.85 425.88, 224.40 421.61 C 222.96 417.35, 222.37 414.05, 221.55 407.47 C 220.73 400.89, 220.47 396.47, 220.31 388.71 C 220.14 380.95, 220.35 376.31, 220.73 368.67 C 221.11 361.03, 221.51 356.91, 222.21 350.51 C 222.92 344.11, 223.44 341.15, 224.27 336.68 C 225.11 332.20, 225.85 330.67, 226.39 328.14 C 226.93 325.62, 227.07 324.95, 226.97 324.06 C 226.87 323.17, 226.52 323.02, 225.90 323.71" style="stroke: black; fill: black;"/><path d="M 686.83,299.91 C 686.43 299.55, 686.08 299.27, 684.87 299.24 C 683.65 299.20, 682.73 299.07, 680.76 299.74 C 678.79 300.42, 677.51 300.82, 675.02 302.62 C 672.54 304.42, 671.19 305.54, 668.35 308.76 C 665.50 311.98, 663.78 314.08, 660.81 318.72 C 657.85 323.35, 656.16 326.13, 653.53 331.92 C 650.90 337.72, 649.55 341.21, 647.69 347.69 C 645.83 354.16, 644.87 357.99, 644.23 364.30 C 643.59 370.61, 643.69 373.97, 644.49 379.25 C 645.28 384.52, 646.12 387.04, 648.20 390.69 C 650.28 394.33, 651.75 395.94, 654.88 397.49 C 658.01 399.05, 660.17 399.18, 663.86 398.45 C 667.55 397.71, 669.67 396.51, 673.32 393.80 C 676.98 391.09, 678.86 388.97, 682.13 384.90 C 685.40 380.82, 687.08 378.14, 689.68 373.44 C 692.28 368.74, 693.47 365.92, 695.12 361.39 C 696.77 356.86, 697.44 354.41, 697.94 350.79 C 698.44 347.17, 698.34 345.53, 697.61 343.28 C 696.89 341.02, 695.93 340.21, 694.32 339.52 C 692.71 338.82, 691.48 338.96, 689.57 339.79 C 687.67 340.63, 686.47 341.57, 684.81 343.69 C 683.15 345.81, 682.30 347.31, 681.30 350.38 C 680.30 353.45, 680.00 355.44, 679.81 359.03 C 679.62 362.61, 679.67 364.70, 680.36 368.29 C 681.05 371.88, 681.66 373.79, 683.26 376.97 C 684.85 380.15, 685.89 381.86, 688.33 384.20 C 690.76 386.54, 692.40 387.55, 695.43 388.68 C 698.45 389.81, 700.23 390.07, 703.46 389.86 C 706.70 389.65, 708.52 389.18, 711.61 387.64 C 714.70 386.11, 716.23 384.77, 718.92 382.19 C 721.61 379.61, 722.94 377.94, 725.04 374.74 C 727.13 371.55, 728.11 369.59, 729.41 366.23 C 730.72 362.87, 731.24 360.96, 731.56 357.95 C 731.88 354.94, 731.79 353.34, 731.02 351.19 C 730.26 349.05, 729.43 348.13, 727.75 347.22 C 726.06 346.31, 724.72 346.08, 722.60 346.64 C 720.49 347.20, 719.07 347.93, 717.18 350.03 C 715.29 352.12, 714.38 353.81, 713.15 357.10 C 711.92 360.40, 711.41 362.58, 711.03 366.51 C 710.65 370.44, 710.64 372.82, 711.26 376.77 C 711.87 380.72, 712.51 382.97, 714.11 386.24 C 715.71 389.51, 716.80 391.16, 719.28 393.12 C 721.75 395.08, 723.42 395.72, 726.46 396.05 C 729.51 396.38, 731.24 396.13, 734.49 394.76 C 737.74 393.39, 739.42 392.12, 742.73 389.20 C 746.03 386.28, 747.81 384.17, 750.99 380.16 C 754.18 376.15, 755.77 373.58, 758.64 369.15 C 761.50 364.71, 762.92 362.10, 765.32 358.01 C 767.73 353.92, 768.87 351.83, 770.67 348.67 C 772.48 345.52, 773.22 344.14, 774.36 342.24 C 775.51 340.34, 775.76 339.72, 776.39 339.18 C 777.02 338.63, 777.07 338.81, 777.51 339.52 C 777.95 340.24, 777.99 341.00, 778.58 342.76 C 779.17 344.52, 779.58 345.79, 780.47 348.31 C 781.35 350.83, 782.11 352.31, 783.00 355.35 C 783.89 358.39, 784.39 360.19, 784.91 363.50 C 785.43 366.81, 785.65 368.62, 785.62 371.90 C 785.59 375.19, 785.41 377.05, 784.77 379.91 C 784.12 382.76, 783.57 384.05, 782.42 386.16 C 781.27 388.28, 780.50 389.11, 779.02 390.47 C 777.54 391.83, 776.56 392.35, 775.01 392.96 C 773.46 393.56, 772.52 393.51, 771.27 393.50 C 770.02 393.49, 769.55 393.15, 768.76 392.91 C 767.98 392.68, 767.65 392.40, 767.34 392.30 C 767.02 392.21, 766.85 392.24, 767.20 392.43 C 767.56 392.62, 767.90 392.88, 769.11 393.25 C 770.31 393.63, 771.19 393.96, 773.23 394.32 C 775.27 394.69, 776.66 395.00, 779.31 395.09 C 781.96 395.17, 783.53 395.31, 786.48 394.75 C 789.44 394.20, 791.03 393.73, 794.09 392.32 C 797.14 390.90, 798.80 389.93, 801.75 387.66 C 804.71 385.40, 806.27 383.90, 808.87 380.99 C 811.47 378.08, 812.72 376.38, 814.76 373.11 C 816.80 369.85, 817.63 367.93, 819.07 364.67 C 820.51 361.42, 821.18 359.63, 821.98 356.83 C 822.78 354.04, 822.96 352.64, 823.09 350.70 C 823.21 348.76, 823.02 348.00, 822.60 347.16 C 822.17 346.31, 821.74 346.13, 820.98 346.47 C 820.22 346.81, 819.61 347.25, 818.77 348.85 C 817.94 350.46, 817.34 351.63, 816.79 354.50 C 816.24 357.36, 816.28 359.39, 816.04 363.17 C 815.80 366.96, 815.60 369.38, 815.59 373.43 C 815.58 377.47, 815.56 379.76, 815.98 383.40 C 816.40 387.04, 816.62 389.03, 817.69 391.64 C 818.75 394.25, 819.64 395.39, 821.31 396.45 C 822.98 397.52, 824.03 397.72, 826.04 396.98 C 828.04 396.24, 829.22 395.37, 831.32 392.75 C 833.42 390.14, 834.47 388.19, 836.53 383.90 C 838.59 379.61, 839.71 376.92, 841.61 371.31 C 843.52 365.70, 844.44 362.22, 846.06 355.87 C 847.68 349.52, 848.45 345.86, 849.71 339.57 C 850.96 333.27, 851.49 329.82, 852.35 324.41 C 853.20 318.99, 853.66 316.17, 853.99 312.48 C 854.33 308.80, 854.32 307.13, 854.00 305.99 C 853.68 304.85, 852.88 305.05, 852.39 306.78 C 851.90 308.51, 851.73 310.37, 851.55 314.65 C 851.37 318.93, 851.42 322.22, 851.51 328.18 C 851.59 334.14, 851.71 337.94, 851.98 344.44 C 852.25 350.95, 852.41 354.68, 852.86 360.71 C 853.32 366.74, 853.56 369.89, 854.25 374.60 C 854.93 379.31, 855.16 381.41, 856.29 384.25 C 857.41 387.09, 858.22 388.04, 859.87 388.80 C 861.53 389.56, 862.63 389.33, 864.55 388.04 C 866.48 386.76, 867.59 385.19, 869.50 382.38 C 871.41 379.57, 872.33 377.34, 874.11 373.99 C 875.89 370.64, 876.93 368.51, 878.39 365.61 C 879.85 362.71, 880.58 361.13, 881.40 359.48 C 882.22 357.83, 882.28 357.24, 882.50 357.35 C 882.72 357.46, 882.44 358.14, 882.50 360.03 C 882.57 361.91, 882.46 363.67, 882.80 366.77 C 883.15 369.87, 883.50 372.11, 884.21 375.51 C 884.91 378.91, 885.17 380.96, 886.33 383.76 C 887.50 386.57, 888.23 387.98, 890.04 389.54 C 891.85 391.11, 893.03 391.71, 895.39 391.57 C 897.75 391.43, 899.26 390.77, 901.85 388.83 C 904.44 386.89, 905.75 385.11, 908.33 381.88 C 910.91 378.65, 912.32 376.47, 914.75 372.67 C 917.17 368.88, 918.54 366.24, 920.45 362.91 C 922.36 359.58, 923.30 357.71, 924.28 356.02 C 925.27 354.32, 925.31 353.94, 925.38 354.45 C 925.46 354.97, 924.89 355.97, 924.66 358.58 C 924.43 361.19, 924.32 363.69, 924.23 367.51 C 924.15 371.34, 924.04 374.00, 924.25 377.70 C 924.45 381.39, 924.41 383.49, 925.27 385.99 C 926.14 388.49, 926.95 389.35, 928.55 390.21 C 930.15 391.07, 931.38 391.26, 933.27 390.30 C 935.17 389.34, 937.36 386.67, 938.02 385.39 C 938.68 384.11, 937.80 383.38, 936.58 383.90 C 935.37 384.43, 933.38 387.04, 931.95 388.02 C 930.51 388.99, 930.20 389.33, 929.39 388.78 C 928.58 388.23, 928.32 387.52, 927.89 385.28 C 927.47 383.04, 927.36 381.11, 927.26 377.57 C 927.17 374.03, 927.33 371.39, 927.42 367.59 C 927.51 363.78, 927.98 361.31, 927.71 358.56 C 927.45 355.81, 927.12 354.62, 926.09 353.85 C 925.07 353.07, 924.17 353.13, 922.60 354.68 C 921.02 356.23, 920.19 358.27, 918.22 361.61 C 916.25 364.95, 915.12 367.67, 912.74 371.40 C 910.37 375.13, 908.89 377.23, 906.35 380.26 C 903.82 383.29, 902.31 384.73, 900.07 386.54 C 897.83 388.35, 896.84 389.05, 895.16 389.31 C 893.48 389.57, 892.86 389.18, 891.68 387.85 C 890.50 386.52, 890.11 385.26, 889.26 382.67 C 888.41 380.08, 888.00 378.17, 887.43 374.89 C 886.86 371.62, 886.89 369.38, 886.43 366.30 C 885.97 363.22, 885.87 361.45, 885.13 359.48 C 884.40 357.51, 883.89 356.72, 882.75 356.45 C 881.61 356.17, 880.85 356.57, 879.44 358.12 C 878.03 359.67, 877.29 361.30, 875.70 364.19 C 874.11 367.09, 873.25 369.30, 871.49 372.59 C 869.73 375.89, 868.56 377.94, 866.88 380.68 C 865.20 383.41, 864.35 384.90, 863.08 386.27 C 861.81 387.64, 861.46 388.09, 860.52 387.53 C 859.58 386.97, 859.29 386.11, 858.39 383.47 C 857.48 380.83, 856.80 378.90, 856.01 374.32 C 855.22 369.74, 854.91 366.58, 854.43 360.59 C 853.94 354.60, 853.78 350.87, 853.59 344.39 C 853.40 337.90, 853.42 334.11, 853.50 328.18 C 853.57 322.25, 853.86 318.98, 853.97 314.73 C 854.09 310.48, 854.26 308.68, 854.06 306.92 C 853.86 305.16, 853.43 304.87, 852.99 305.93 C 852.56 307.00, 852.34 308.61, 851.88 312.26 C 851.43 315.90, 851.45 318.77, 850.72 324.17 C 850.00 329.57, 849.48 333.02, 848.25 339.28 C 847.02 345.54, 846.24 349.20, 844.59 355.49 C 842.93 361.78, 841.97 365.25, 839.96 370.73 C 837.96 376.21, 836.73 378.85, 834.56 382.91 C 832.39 386.96, 830.99 388.58, 829.11 391.01 C 827.23 393.43, 826.48 394.25, 825.15 395.03 C 823.82 395.81, 823.42 395.78, 822.45 394.91 C 821.48 394.03, 821.07 393.03, 820.30 390.67 C 819.52 388.31, 818.99 386.53, 818.56 383.09 C 818.14 379.65, 818.08 377.38, 818.17 373.46 C 818.25 369.53, 818.48 367.10, 818.97 363.46 C 819.47 359.82, 820.07 357.98, 820.63 355.26 C 821.19 352.54, 821.52 351.48, 821.77 349.86 C 822.02 348.24, 821.99 347.67, 821.88 347.16 C 821.77 346.64, 821.50 346.66, 821.22 347.29 C 820.94 347.92, 820.90 348.56, 820.47 350.31 C 820.05 352.06, 819.85 353.34, 819.10 356.02 C 818.35 358.69, 817.99 360.51, 816.72 363.68 C 815.44 366.84, 814.65 368.71, 812.72 371.84 C 810.79 374.98, 809.56 376.60, 807.06 379.35 C 804.55 382.10, 803.02 383.52, 800.20 385.59 C 797.38 387.67, 795.79 388.54, 792.94 389.73 C 790.10 390.91, 788.65 391.18, 785.97 391.52 C 783.28 391.86, 781.94 391.64, 779.52 391.44 C 777.09 391.23, 775.85 390.79, 773.85 390.50 C 771.84 390.21, 770.95 389.92, 769.49 389.99 C 768.03 390.05, 767.27 390.20, 766.55 390.83 C 765.83 391.45, 765.67 392.24, 765.90 393.11 C 766.13 393.98, 766.65 394.55, 767.70 395.17 C 768.76 395.80, 769.51 396.15, 771.18 396.24 C 772.84 396.32, 774.09 396.35, 776.03 395.60 C 777.97 394.86, 779.12 394.13, 780.89 392.52 C 782.67 390.91, 783.58 389.93, 784.91 387.53 C 786.24 385.13, 786.84 383.64, 787.53 380.52 C 788.21 377.40, 788.30 375.41, 788.33 371.93 C 788.36 368.44, 788.12 366.57, 787.67 363.10 C 787.21 359.63, 786.78 357.77, 786.05 354.56 C 785.33 351.36, 784.96 349.70, 784.05 347.06 C 783.14 344.43, 782.57 343.16, 781.49 341.39 C 780.42 339.61, 779.86 338.89, 778.69 338.19 C 777.52 337.48, 776.91 337.32, 775.64 337.87 C 774.37 338.41, 773.74 338.98, 772.36 340.92 C 770.97 342.87, 770.45 344.36, 768.71 347.58 C 766.97 350.81, 765.98 352.94, 763.65 357.05 C 761.33 361.16, 759.91 363.76, 757.07 368.13 C 754.24 372.51, 752.62 375.05, 749.46 378.93 C 746.30 382.81, 744.46 384.83, 741.28 387.54 C 738.10 390.25, 736.45 391.30, 733.55 392.48 C 730.64 393.66, 729.28 393.73, 726.75 393.45 C 724.22 393.17, 722.97 392.75, 720.89 391.09 C 718.81 389.43, 717.79 388.09, 716.34 385.15 C 714.90 382.21, 714.23 380.07, 713.69 376.40 C 713.14 372.73, 713.17 370.43, 713.61 366.79 C 714.06 363.15, 714.72 361.11, 715.92 358.19 C 717.13 355.26, 718.14 353.97, 719.63 352.15 C 721.13 350.33, 722.00 349.71, 723.42 349.10 C 724.84 348.48, 725.69 348.53, 726.75 349.09 C 727.80 349.65, 728.32 350.18, 728.70 351.89 C 729.08 353.59, 729.01 354.93, 728.67 357.61 C 728.32 360.30, 728.12 362.16, 726.97 365.31 C 725.83 368.46, 724.90 370.36, 722.94 373.37 C 720.98 376.38, 719.66 377.97, 717.16 380.35 C 714.66 382.73, 713.21 383.92, 710.44 385.28 C 707.67 386.64, 706.11 386.99, 703.29 387.17 C 700.48 387.35, 698.99 387.13, 696.36 386.16 C 693.73 385.19, 692.31 384.37, 690.14 382.31 C 687.98 380.24, 687.00 378.72, 685.56 375.82 C 684.12 372.92, 683.53 371.14, 682.94 367.82 C 682.36 364.50, 682.34 362.50, 682.62 359.22 C 682.90 355.94, 683.38 354.13, 684.35 351.42 C 685.33 348.71, 686.21 347.55, 687.50 345.67 C 688.79 343.78, 689.57 342.91, 690.80 342.00 C 692.03 341.09, 692.71 340.73, 693.66 341.10 C 694.61 341.47, 695.13 341.97, 695.55 343.85 C 695.96 345.72, 696.16 347.11, 695.72 350.49 C 695.27 353.87, 694.84 356.33, 693.31 360.75 C 691.79 365.16, 690.61 367.97, 688.08 372.56 C 685.55 377.15, 683.85 379.78, 680.66 383.70 C 677.46 387.62, 675.55 389.62, 672.11 392.16 C 668.66 394.69, 666.70 395.67, 663.43 396.37 C 660.16 397.07, 658.51 396.99, 655.77 395.68 C 653.04 394.36, 651.70 393.12, 649.75 389.79 C 647.81 386.45, 646.86 384.07, 646.05 379.00 C 645.23 373.93, 645.07 370.63, 645.68 364.45 C 646.28 358.26, 647.22 354.46, 649.07 348.09 C 650.93 341.72, 652.30 338.25, 654.95 332.58 C 657.61 326.91, 659.34 324.18, 662.36 319.74 C 665.39 315.30, 667.17 313.26, 670.08 310.39 C 672.98 307.52, 674.51 306.88, 676.89 305.39 C 679.28 303.90, 680.32 303.67, 681.99 302.95 C 683.67 302.23, 684.30 302.17, 685.27 301.78 C 686.24 301.40, 686.54 301.41, 686.85 301.04 C 687.16 300.67, 687.23 300.27, 686.83 299.91" style="stroke: black; fill: black;"/><path d="M 930.09,321.91 C 929.57 322.06, 928.92 322.55, 928.87 323.09 C 928.82 323.63, 929.28 324.39, 929.83 324.61 C 930.38 324.83, 931.18 324.50, 931.62 324.21 C 932.05 323.92, 932.04 323.51, 932.00 323.14 C 931.97 322.77, 931.82 322.60, 931.44 322.36 C 931.05 322.11, 930.60 321.76, 930.09 321.91" style="stroke: black; fill: black;"/><path d="M 965.35,350.01 C 965.13 349.74, 965.25 349.50, 964.39 349.44 C 963.53 349.38, 962.78 349.02, 961.05 349.69 C 959.32 350.36, 957.93 350.83, 955.74 352.81 C 953.55 354.78, 952.16 356.41, 950.09 359.56 C 948.02 362.71, 946.76 364.79, 945.40 368.54 C 944.04 372.29, 943.46 374.62, 943.29 378.33 C 943.11 382.03, 943.23 384.29, 944.51 387.08 C 945.79 389.86, 947.03 391.29, 949.70 392.24 C 952.38 393.20, 954.33 393.16, 957.91 391.85 C 961.48 390.53, 963.56 389.10, 967.58 385.68 C 971.60 382.26, 973.83 380.01, 978.00 374.74 C 982.16 369.47, 984.48 366.12, 988.42 359.34 C 992.36 352.55, 994.46 348.34, 997.69 340.83 C 1000.92 333.33, 1002.40 329.00, 1004.55 321.81 C 1006.71 314.63, 1007.48 310.75, 1008.45 304.90 C 1009.41 299.06, 1009.76 296.04, 1009.37 292.60 C 1008.98 289.16, 1007.99 287.96, 1006.49 287.70 C 1004.98 287.43, 1003.63 288.29, 1001.84 291.28 C 1000.05 294.27, 999.12 296.95, 997.53 302.66 C 995.93 308.36, 994.97 312.46, 993.85 319.81 C 992.73 327.15, 992.29 331.75, 991.92 339.39 C 991.55 347.04, 991.64 351.30, 992.00 358.03 C 992.35 364.76, 992.63 368.11, 993.69 373.03 C 994.76 377.95, 995.42 380.02, 997.33 382.65 C 999.24 385.27, 1000.63 385.86, 1003.24 386.16 C 1005.85 386.46, 1007.52 385.75, 1010.39 384.14 C 1013.25 382.53, 1014.79 380.70, 1017.56 378.11 C 1020.34 375.52, 1022.00 373.49, 1024.24 371.19 C 1026.49 368.89, 1027.46 367.59, 1028.78 366.63 C 1030.11 365.66, 1030.33 365.54, 1030.87 366.37 C 1031.41 367.21, 1031.28 368.37, 1031.50 370.81 C 1031.71 373.25, 1031.57 375.46, 1031.96 378.57 C 1032.35 381.68, 1032.45 383.82, 1033.45 386.35 C 1034.44 388.88, 1035.24 390.33, 1036.93 391.22 C 1038.62 392.12, 1039.84 392.26, 1041.89 390.82 C 1043.94 389.39, 1045.00 387.95, 1047.18 384.05 C 1049.36 380.15, 1050.50 377.29, 1052.77 371.31 C 1055.04 365.33, 1056.27 361.54, 1058.51 354.15 C 1060.76 346.75, 1061.89 342.21, 1064.00 334.33 C 1066.12 326.46, 1067.26 322.05, 1069.08 314.78 C 1070.91 307.51, 1071.77 303.68, 1073.12 297.98 C 1074.48 292.29, 1075.24 289.52, 1075.87 286.31 C 1076.50 283.10, 1076.39 282.03, 1076.28 281.94 C 1076.16 281.85, 1075.55 282.68, 1075.30 285.88 C 1075.05 289.09, 1075.08 291.94, 1075.03 297.96 C 1074.97 303.99, 1074.93 308.33, 1075.02 316.01 C 1075.11 323.68, 1075.21 328.34, 1075.48 336.33 C 1075.74 344.33, 1075.94 348.71, 1076.35 355.98 C 1076.76 363.25, 1077.00 367.05, 1077.51 372.69 C 1078.02 378.34, 1078.13 380.90, 1078.88 384.20 C 1079.63 387.50, 1080.30 388.66, 1081.27 389.20 C 1082.23 389.75, 1083.14 388.99, 1083.72 386.92 C 1084.29 384.85, 1084.41 382.51, 1084.14 378.87 C 1083.87 375.23, 1083.17 372.47, 1082.37 368.74 C 1081.57 365.01, 1081.07 362.74, 1080.16 360.23 C 1079.24 357.72, 1078.25 356.84, 1077.81 356.18 C 1077.36 355.52, 1077.11 356.08, 1077.92 356.91 C 1078.72 357.73, 1079.45 359.05, 1081.83 360.31 C 1084.21 361.58, 1086.14 362.46, 1089.82 363.23 C 1093.50 364.00, 1095.81 364.28, 1100.23 364.17 C 1104.64 364.07, 1107.24 363.73, 1111.89 362.71 C 1116.54 361.70, 1119.12 360.98, 1123.48 359.09 C 1127.83 357.21, 1130.07 355.85, 1133.67 353.29 C 1137.26 350.74, 1139.08 349.12, 1141.45 346.33 C 1143.82 343.53, 1144.82 341.85, 1145.51 339.31 C 1146.21 336.77, 1145.96 335.39, 1144.92 333.63 C 1143.87 331.88, 1142.73 330.97, 1140.27 330.53 C 1137.80 330.08, 1135.82 330.19, 1132.59 331.41 C 1129.36 332.62, 1127.26 333.84, 1124.12 336.60 C 1120.98 339.36, 1119.20 341.29, 1116.87 345.21 C 1114.54 349.12, 1113.29 351.64, 1112.47 356.16 C 1111.65 360.67, 1111.64 363.43, 1112.76 367.77 C 1113.88 372.11, 1114.96 374.51, 1118.07 377.85 C 1121.17 381.19, 1123.47 382.65, 1128.29 384.48 C 1133.12 386.30, 1136.13 386.82, 1142.20 386.97 C 1148.26 387.12, 1152.46 386.45, 1158.63 385.24 C 1164.80 384.03, 1168.16 382.65, 1173.05 380.92 C 1177.94 379.19, 1181.16 377.68, 1183.07 376.59 C 1184.98 375.50, 1184.71 374.90, 1182.61 375.48 C 1180.50 376.05, 1177.40 377.81, 1172.54 379.45 C 1167.69 381.09, 1164.38 382.48, 1158.32 383.66 C 1152.26 384.84, 1148.12 385.52, 1142.24 385.37 C 1136.36 385.21, 1133.46 384.64, 1128.90 382.89 C 1124.34 381.13, 1122.27 379.72, 1119.42 376.60 C 1116.57 373.48, 1115.63 371.31, 1114.64 367.30 C 1113.65 363.28, 1113.64 360.72, 1114.46 356.53 C 1115.28 352.34, 1116.47 349.94, 1118.73 346.34 C 1120.98 342.74, 1122.76 340.95, 1125.74 338.51 C 1128.72 336.08, 1130.79 335.26, 1133.64 334.17 C 1136.48 333.08, 1138.03 332.98, 1139.96 333.07 C 1141.89 333.16, 1142.64 333.49, 1143.29 334.60 C 1143.94 335.70, 1143.95 336.55, 1143.22 338.60 C 1142.48 340.64, 1141.79 342.20, 1139.64 344.81 C 1137.48 347.41, 1135.85 349.12, 1132.46 351.62 C 1129.07 354.11, 1126.89 355.47, 1122.69 357.28 C 1118.49 359.10, 1115.96 359.80, 1111.47 360.71 C 1106.97 361.62, 1104.41 361.93, 1100.22 361.84 C 1096.03 361.76, 1093.91 361.22, 1090.53 360.28 C 1087.16 359.34, 1085.72 358.10, 1083.33 357.12 C 1080.95 356.14, 1079.97 355.56, 1078.62 355.39 C 1077.28 355.22, 1076.93 355.13, 1076.62 356.27 C 1076.30 357.41, 1076.54 358.46, 1077.06 361.09 C 1077.57 363.72, 1078.42 365.80, 1079.20 369.42 C 1079.99 373.05, 1080.49 375.75, 1080.98 379.21 C 1081.46 382.66, 1081.48 384.80, 1081.63 386.70 C 1081.79 388.60, 1081.93 389.27, 1081.77 388.70 C 1081.60 388.12, 1081.36 387.05, 1080.80 383.82 C 1080.25 380.58, 1079.63 378.13, 1078.99 372.54 C 1078.35 366.96, 1078.06 363.15, 1077.61 355.91 C 1077.16 348.66, 1076.96 344.28, 1076.73 336.30 C 1076.51 328.31, 1076.46 323.66, 1076.49 316.00 C 1076.52 308.34, 1076.68 304.02, 1076.88 298.00 C 1077.07 291.99, 1077.58 289.18, 1077.45 285.92 C 1077.33 282.67, 1076.93 281.73, 1076.25 281.72 C 1075.57 281.71, 1074.96 282.68, 1074.04 285.87 C 1073.13 289.06, 1072.93 291.94, 1071.70 297.66 C 1070.46 303.38, 1069.65 307.21, 1067.88 314.48 C 1066.11 321.75, 1064.96 326.17, 1062.83 334.02 C 1060.70 341.87, 1059.55 346.41, 1057.22 353.75 C 1054.89 361.08, 1053.59 364.85, 1051.19 370.69 C 1048.80 376.53, 1047.39 379.28, 1045.25 382.95 C 1043.10 386.62, 1041.94 387.69, 1040.47 389.05 C 1039.00 390.41, 1038.66 390.49, 1037.90 389.76 C 1037.13 389.03, 1037.09 387.74, 1036.66 385.41 C 1036.22 383.07, 1036.09 381.14, 1035.70 378.10 C 1035.31 375.05, 1035.44 372.78, 1034.70 370.20 C 1033.97 367.62, 1033.41 366.31, 1032.03 365.22 C 1030.65 364.12, 1029.78 363.96, 1027.79 364.71 C 1025.80 365.46, 1024.53 366.71, 1022.09 368.98 C 1019.65 371.25, 1018.21 373.47, 1015.59 376.05 C 1012.98 378.64, 1011.45 380.26, 1009.01 381.89 C 1006.58 383.53, 1005.42 384.30, 1003.40 384.23 C 1001.38 384.15, 1000.54 383.83, 998.90 381.52 C 997.27 379.21, 996.34 377.39, 995.23 372.68 C 994.12 367.97, 993.75 364.60, 993.35 357.95 C 992.95 351.31, 992.84 347.04, 993.24 339.46 C 993.63 331.88, 994.12 327.30, 995.33 320.04 C 996.54 312.79, 997.62 308.72, 999.30 303.17 C 1000.97 297.62, 1002.28 295.21, 1003.69 292.29 C 1005.11 289.36, 1005.58 288.47, 1006.35 288.56 C 1007.12 288.65, 1007.42 289.52, 1007.55 292.74 C 1007.68 295.97, 1007.85 298.94, 1007.01 304.68 C 1006.18 310.42, 1005.46 314.33, 1003.38 321.46 C 1001.29 328.60, 999.81 332.92, 996.59 340.36 C 993.38 347.81, 991.27 352.00, 987.31 358.69 C 983.36 365.38, 981.01 368.69, 976.83 373.80 C 972.64 378.91, 970.33 381.06, 966.39 384.24 C 962.45 387.43, 960.31 388.55, 957.12 389.72 C 953.94 390.89, 952.52 390.83, 950.47 390.10 C 948.43 389.36, 947.84 388.37, 946.91 386.04 C 945.99 383.71, 945.67 381.77, 945.86 378.46 C 946.04 375.14, 946.51 372.89, 947.85 369.46 C 949.18 366.03, 950.44 364.03, 952.54 361.29 C 954.63 358.56, 956.30 357.46, 958.32 355.78 C 960.34 354.11, 961.30 353.73, 962.62 352.90 C 963.95 352.07, 964.36 352.07, 964.94 351.65 C 965.51 351.23, 965.41 351.13, 965.50 350.80 C 965.58 350.47, 965.57 350.28, 965.35 350.01" style="stroke: black; fill: black;"/></svg>